<svg xmlns="http://www.w3.org/2000/svg" version="1.1" xmlns:xlink="http://www.w3.org/1999/xlink" xmlns:svgjs="http://svgjs.dev/svgjs" viewBox="0 0 640 800"><circle r="10" cx="408" cy="76" fill="hsl(360, 100%, 67%)" opacity="0.39"></circle><circle r="5.5" cx="133" cy="292" fill="hsl(360, 100%, 67%)" opacity="0.55"></circle><circle r="11" cx="490" cy="558" fill="hsl(360, 100%, 67%)" opacity="0.20"></circle><circle r="9.5" cx="134" cy="20" fill="hsl(360, 100%, 67%)" opacity="0.29"></circle><circle r="5.5" cx="194" cy="109" fill="hsl(360, 100%, 67%)" opacity="0.55"></circle><circle r="5" cx="375" cy="226" fill="hsl(360, 100%, 67%)" opacity="0.47"></circle><circle r="7.5" cx="246" cy="65" fill="hsl(360, 100%, 67%)" opacity="0.95"></circle><circle r="5.5" cx="274" cy="627" fill="hsl(360, 100%, 67%)" opacity="0.38"></circle><circle r="4.5" cx="542" cy="629" fill="hsl(360, 100%, 67%)" opacity="0.91"></circle><circle r="6.5" cx="155" cy="564" fill="hsl(360, 100%, 67%)" opacity="0.64"></circle><circle r="11" cx="597" cy="32" fill="hsl(360, 100%, 67%)" opacity="0.38"></circle><circle r="12.5" cx="427" cy="586" fill="hsl(360, 100%, 67%)" opacity="0.92"></circle><circle r="10" cx="523" cy="590" fill="hsl(360, 100%, 67%)" opacity="0.43"></circle><circle r="11" cx="582" cy="460" fill="hsl(360, 100%, 67%)" opacity="0.20"></circle><circle r="10" cx="529" cy="730" fill="hsl(360, 100%, 67%)" opacity="0.46"></circle><circle r="12" cx="522" cy="306" fill="hsl(360, 100%, 67%)" opacity="0.45"></circle><circle r="11" cx="355" cy="66" fill="hsl(360, 100%, 67%)" opacity="0.53"></circle><circle r="6.5" cx="263" cy="437" fill="hsl(360, 100%, 67%)" opacity="0.45"></circle><circle r="7.5" cx="275" cy="34" fill="hsl(360, 100%, 67%)" opacity="0.53"></circle><circle r="10.5" cx="477" cy="89" fill="hsl(360, 100%, 67%)" opacity="0.80"></circle><circle r="6" cx="413" cy="695" fill="hsl(360, 100%, 67%)" opacity="0.94"></circle><circle r="7" cx="598" cy="395" fill="hsl(360, 100%, 67%)" opacity="0.11"></circle><circle r="6" cx="178" cy="542" fill="hsl(360, 100%, 67%)" opacity="0.53"></circle><circle r="6.5" cx="150" cy="75" fill="hsl(360, 100%, 67%)" opacity="0.76"></circle><circle r="6" cx="316" cy="613" fill="hsl(360, 100%, 67%)" opacity="0.27"></circle><circle r="8" cx="502" cy="629" fill="hsl(360, 100%, 67%)" opacity="0.25"></circle><circle r="9" cx="339" cy="168" fill="hsl(360, 100%, 67%)" opacity="0.34"></circle><circle r="8.5" cx="136" cy="176" fill="hsl(360, 100%, 67%)" opacity="0.64"></circle><circle r="7.5" cx="444" cy="638" fill="hsl(360, 100%, 67%)" opacity="0.68"></circle><circle r="4.5" cx="253" cy="563" fill="hsl(360, 100%, 67%)" opacity="0.88"></circle><circle r="3" cx="5" cy="400" fill="hsl(360, 100%, 67%)" opacity="0.89"></circle><circle r="11.5" cx="567" cy="351" fill="hsl(360, 100%, 67%)" opacity="0.36"></circle><circle r="8.5" cx="571" cy="405" fill="hsl(360, 100%, 67%)" opacity="0.67"></circle><circle r="5.5" cx="474" cy="386" fill="hsl(360, 100%, 67%)" opacity="0.28"></circle><circle r="8" cx="329" cy="299" fill="hsl(360, 100%, 67%)" opacity="0.59"></circle><circle r="5.5" cx="11" cy="21" fill="hsl(360, 100%, 67%)" opacity="0.94"></circle><circle r="9" cx="624" cy="538" fill="hsl(360, 100%, 67%)" opacity="0.52"></circle><circle r="7.5" cx="223" cy="96" fill="hsl(360, 100%, 67%)" opacity="0.57"></circle><circle r="6.5" cx="36" cy="17" fill="hsl(360, 100%, 67%)" opacity="0.88"></circle><circle r="7.5" cx="341" cy="404" fill="hsl(360, 100%, 67%)" opacity="0.94"></circle><circle r="8.5" cx="547" cy="475" fill="hsl(360, 100%, 67%)" opacity="0.68"></circle><circle r="9" cx="73" cy="394" fill="hsl(360, 100%, 67%)" opacity="0.23"></circle><circle r="6" cx="443" cy="16" fill="hsl(360, 100%, 67%)" opacity="0.23"></circle><circle r="7" cx="503" cy="414" fill="hsl(360, 100%, 67%)" opacity="0.56"></circle><circle r="8.5" cx="81" cy="781" fill="hsl(360, 100%, 67%)" opacity="0.42"></circle><circle r="8.5" cx="532" cy="393" fill="hsl(360, 100%, 67%)" opacity="0.18"></circle><circle r="7.5" cx="575" cy="199" fill="hsl(360, 100%, 67%)" opacity="0.36"></circle><circle r="6.5" cx="238" cy="463" fill="hsl(360, 100%, 67%)" opacity="0.88"></circle><circle r="6.5" cx="607" cy="732" fill="hsl(360, 100%, 67%)" opacity="0.88"></circle><circle r="4.5" cx="99" cy="416" fill="hsl(360, 100%, 67%)" opacity="0.65"></circle><circle r="5.5" cx="258" cy="535" fill="hsl(360, 100%, 67%)" opacity="0.34"></circle><circle r="6.5" cx="467" cy="754" fill="hsl(360, 100%, 67%)" opacity="0.46"></circle><circle r="7.5" cx="176" cy="488" fill="hsl(360, 100%, 67%)" opacity="0.75"></circle><circle r="7.5" cx="565" cy="172" fill="hsl(360, 100%, 67%)" opacity="0.86"></circle><circle r="7" cx="609" cy="372" fill="hsl(360, 100%, 67%)" opacity="0.55"></circle><circle r="8" cx="43" cy="204" fill="hsl(360, 100%, 67%)" opacity="0.61"></circle><circle r="8" cx="109" cy="698" fill="hsl(360, 100%, 67%)" opacity="0.46"></circle><circle r="6" cx="600" cy="108" fill="hsl(360, 100%, 67%)" opacity="0.63"></circle><circle r="9" cx="494" cy="659" fill="hsl(360, 100%, 67%)" opacity="0.32"></circle><circle r="9.5" cx="120" cy="570" fill="hsl(360, 100%, 67%)" opacity="0.33"></circle><circle r="6.5" cx="123" cy="411" fill="hsl(360, 100%, 67%)" opacity="0.22"></circle><circle r="11" cx="457" cy="282" fill="hsl(360, 100%, 67%)" opacity="0.73"></circle><circle r="6.5" cx="516" cy="788" fill="hsl(360, 100%, 67%)" opacity="0.74"></circle><circle r="6" cx="218" cy="133" fill="hsl(360, 100%, 67%)" opacity="0.95"></circle><circle r="10" cx="542" cy="79" fill="hsl(360, 100%, 67%)" opacity="0.23"></circle><circle r="7" cx="624" cy="220" fill="hsl(360, 100%, 67%)" opacity="0.83"></circle><circle r="6" cx="405" cy="396" fill="hsl(360, 100%, 67%)" opacity="0.83"></circle><circle r="11.5" cx="464" cy="522" fill="hsl(360, 100%, 67%)" opacity="0.93"></circle><circle r="5.5" cx="306" cy="647" fill="hsl(360, 100%, 67%)" opacity="0.22"></circle><circle r="6" cx="253" cy="138" fill="hsl(360, 100%, 67%)" opacity="0.75"></circle><circle r="8.5" cx="17" cy="546" fill="hsl(360, 100%, 67%)" opacity="0.37"></circle><circle r="8.5" cx="391" cy="426" fill="hsl(360, 100%, 67%)" opacity="0.30"></circle><circle r="9" cx="591" cy="257" fill="hsl(360, 100%, 67%)" opacity="0.72"></circle><circle r="7.5" cx="185" cy="593" fill="hsl(360, 100%, 67%)" opacity="0.94"></circle><circle r="6.5" cx="545" cy="417" fill="hsl(360, 100%, 67%)" opacity="0.13"></circle><circle r="9.5" cx="557" cy="231" fill="hsl(360, 100%, 67%)" opacity="0.25"></circle><circle r="9" cx="447" cy="225" fill="hsl(360, 100%, 67%)" opacity="0.33"></circle><circle r="6.5" cx="302" cy="783" fill="hsl(360, 100%, 67%)" opacity="0.47"></circle><circle r="6" cx="209" cy="477" fill="hsl(360, 100%, 67%)" opacity="0.12"></circle><circle r="4" cx="235" cy="613" fill="hsl(360, 100%, 67%)" opacity="0.23"></circle><circle r="10.5" cx="427" cy="176" fill="hsl(360, 100%, 67%)" opacity="0.12"></circle><circle r="11.5" cx="408" cy="286" fill="hsl(360, 100%, 67%)" opacity="0.31"></circle><circle r="9" cx="490" cy="768" fill="hsl(360, 100%, 67%)" opacity="0.52"></circle><circle r="5.5" cx="245" cy="638" fill="hsl(360, 100%, 67%)" opacity="0.82"></circle><circle r="7" cx="103" cy="40" fill="hsl(360, 100%, 67%)" opacity="0.86"></circle><circle r="8" cx="71" cy="17" fill="hsl(360, 100%, 67%)" opacity="0.22"></circle><circle r="10" cx="576" cy="745" fill="hsl(360, 100%, 67%)" opacity="0.88"></circle><circle r="7.5" cx="159" cy="270" fill="hsl(360, 100%, 67%)" opacity="0.60"></circle><circle r="6" cx="354" cy="441" fill="hsl(360, 100%, 67%)" opacity="0.69"></circle><circle r="7" cx="599" cy="169" fill="hsl(360, 100%, 67%)" opacity="0.96"></circle><circle r="6.5" cx="180" cy="188" fill="hsl(360, 100%, 67%)" opacity="0.99"></circle><circle r="6" cx="14" cy="215" fill="hsl(360, 100%, 67%)" opacity="0.37"></circle><circle r="3" cx="24" cy="793" fill="hsl(360, 100%, 67%)" opacity="0.38"></circle><circle r="6" cx="541" cy="648" fill="hsl(360, 100%, 67%)" opacity="0.71"></circle><circle r="9" cx="141" cy="448" fill="hsl(360, 100%, 67%)" opacity="0.51"></circle><circle r="9.5" cx="289" cy="263" fill="hsl(360, 100%, 67%)" opacity="0.76"></circle><circle r="6" cx="213" cy="642" fill="hsl(360, 100%, 67%)" opacity="0.11"></circle><circle r="5" cx="309" cy="447" fill="hsl(360, 100%, 67%)" opacity="0.81"></circle><circle r="7" cx="209" cy="532" fill="hsl(360, 100%, 67%)" opacity="0.58"></circle><circle r="11" cx="89" cy="624" fill="hsl(360, 100%, 67%)" opacity="0.27"></circle><circle r="7" cx="474" cy="361" fill="hsl(360, 100%, 67%)" opacity="0.99"></circle><circle r="7.5" cx="317" cy="88" fill="hsl(360, 100%, 67%)" opacity="0.91"></circle><circle r="8" cx="67" cy="488" fill="hsl(360, 100%, 67%)" opacity="0.22"></circle><circle r="7" cx="35" cy="713" fill="hsl(360, 100%, 67%)" opacity="0.92"></circle><circle r="8" cx="371" cy="370" fill="hsl(360, 100%, 67%)" opacity="0.11"></circle><circle r="2.5" cx="256" cy="793" fill="hsl(360, 100%, 67%)" opacity="0.89"></circle><circle r="8" cx="396" cy="744" fill="hsl(360, 100%, 67%)" opacity="0.28"></circle><circle r="6.5" cx="22" cy="666" fill="hsl(360, 100%, 67%)" opacity="0.96"></circle><circle r="9.5" cx="599" cy="337" fill="hsl(360, 100%, 67%)" opacity="0.18"></circle><circle r="9" cx="395" cy="119" fill="hsl(360, 100%, 67%)" opacity="0.75"></circle><circle r="6.5" cx="56" cy="744" fill="hsl(360, 100%, 67%)" opacity="0.67"></circle><circle r="7" cx="269" cy="183" fill="hsl(360, 100%, 67%)" opacity="0.11"></circle><circle r="7" cx="284" cy="476" fill="hsl(360, 100%, 67%)" opacity="0.31"></circle><circle r="5" cx="106" cy="295" fill="hsl(360, 100%, 67%)" opacity="0.32"></circle><circle r="12" cx="499" cy="701" fill="hsl(360, 100%, 67%)" opacity="0.42"></circle><circle r="8.5" cx="186" cy="16" fill="hsl(360, 100%, 67%)" opacity="0.48"></circle><circle r="7" cx="628" cy="281" fill="hsl(360, 100%, 67%)" opacity="0.12"></circle><circle r="7.5" cx="74" cy="718" fill="hsl(360, 100%, 67%)" opacity="0.84"></circle><circle r="7" cx="538" cy="760" fill="hsl(360, 100%, 67%)" opacity="0.28"></circle><circle r="10" cx="403" cy="629" fill="hsl(360, 100%, 67%)" opacity="0.93"></circle><circle r="4" cx="10" cy="180" fill="hsl(360, 100%, 67%)" opacity="0.92"></circle><circle r="8" cx="505" cy="181" fill="hsl(360, 100%, 67%)" opacity="0.56"></circle><circle r="3" cx="632" cy="122" fill="hsl(360, 100%, 67%)" opacity="0.78"></circle><circle r="4" cx="71" cy="459" fill="hsl(360, 100%, 67%)" opacity="0.32"></circle><circle r="4" cx="34" cy="136" fill="hsl(360, 100%, 67%)" opacity="0.90"></circle><circle r="8" cx="226" cy="15" fill="hsl(360, 100%, 67%)" opacity="0.20"></circle><circle r="9.5" cx="302" cy="209" fill="hsl(360, 100%, 67%)" opacity="0.83"></circle><circle r="8" cx="527" cy="667" fill="hsl(360, 100%, 67%)" opacity="0.21"></circle><circle r="6" cx="436" cy="722" fill="hsl(360, 100%, 67%)" opacity="0.34"></circle><circle r="7.5" cx="386" cy="518" fill="hsl(360, 100%, 67%)" opacity="0.69"></circle><circle r="8" cx="17" cy="497" fill="hsl(360, 100%, 67%)" opacity="0.19"></circle><circle r="8" cx="264" cy="99" fill="hsl(360, 100%, 67%)" opacity="0.87"></circle><circle r="5" cx="232" cy="675" fill="hsl(360, 100%, 67%)" opacity="0.12"></circle><circle r="10.5" cx="361" cy="667" fill="hsl(360, 100%, 67%)" opacity="0.28"></circle><circle r="9" cx="26" cy="382" fill="hsl(360, 100%, 67%)" opacity="0.66"></circle><circle r="6" cx="358" cy="506" fill="hsl(360, 100%, 67%)" opacity="1.00"></circle><circle r="3" cx="270" cy="592" fill="hsl(360, 100%, 67%)" opacity="0.90"></circle><circle r="5" cx="12" cy="76" fill="hsl(360, 100%, 67%)" opacity="0.86"></circle><circle r="8" cx="404" cy="783" fill="hsl(360, 100%, 67%)" opacity="0.51"></circle><circle r="8.5" cx="81" cy="212" fill="hsl(360, 100%, 67%)" opacity="0.92"></circle><circle r="6" cx="180" cy="396" fill="hsl(360, 100%, 67%)" opacity="0.71"></circle><circle r="9" cx="520" cy="24" fill="hsl(360, 100%, 67%)" opacity="0.18"></circle><circle r="7" cx="318" cy="123" fill="hsl(360, 100%, 67%)" opacity="0.12"></circle><circle r="10" cx="596" cy="556" fill="hsl(360, 100%, 67%)" opacity="0.87"></circle><circle r="5.5" cx="275" cy="755" fill="hsl(360, 100%, 67%)" opacity="0.50"></circle><circle r="9" cx="535" cy="183" fill="hsl(360, 100%, 67%)" opacity="0.94"></circle><circle r="5.5" cx="623" cy="198" fill="hsl(360, 100%, 67%)" opacity="0.62"></circle><circle r="11" cx="514" cy="231" fill="hsl(360, 100%, 67%)" opacity="0.65"></circle><circle r="8.5" cx="573" cy="135" fill="hsl(360, 100%, 67%)" opacity="0.98"></circle><circle r="3.5" cx="256" cy="771" fill="hsl(360, 100%, 67%)" opacity="0.96"></circle><circle r="6.5" cx="412" cy="668" fill="hsl(360, 100%, 67%)" opacity="0.50"></circle><circle r="5.5" cx="256" cy="730" fill="hsl(360, 100%, 67%)" opacity="0.90"></circle><circle r="8.5" cx="603" cy="702" fill="hsl(360, 100%, 67%)" opacity="0.51"></circle><circle r="9.5" cx="225" cy="294" fill="hsl(360, 100%, 67%)" opacity="0.94"></circle><circle r="6.5" cx="31" cy="53" fill="hsl(360, 100%, 67%)" opacity="0.91"></circle><circle r="9.5" cx="573" cy="709" fill="hsl(360, 100%, 67%)" opacity="0.61"></circle><circle r="8.5" cx="149" cy="512" fill="hsl(360, 100%, 67%)" opacity="0.61"></circle><circle r="8" cx="302" cy="526" fill="hsl(360, 100%, 67%)" opacity="0.93"></circle><circle r="6.5" cx="398" cy="207" fill="hsl(360, 100%, 67%)" opacity="0.19"></circle><circle r="7.5" cx="169" cy="49" fill="hsl(360, 100%, 67%)" opacity="0.27"></circle><circle r="4.5" cx="208" cy="396" fill="hsl(360, 100%, 67%)" opacity="0.75"></circle><circle r="6" cx="146" cy="709" fill="hsl(360, 100%, 67%)" opacity="0.74"></circle><circle r="10" cx="622" cy="446" fill="hsl(360, 100%, 67%)" opacity="0.53"></circle><circle r="4.5" cx="146" cy="342" fill="hsl(360, 100%, 67%)" opacity="0.73"></circle><circle r="7" cx="88" cy="105" fill="hsl(360, 100%, 67%)" opacity="0.55"></circle><circle r="5.5" cx="289" cy="10" fill="hsl(360, 100%, 67%)" opacity="0.68"></circle><circle r="5" cx="384" cy="182" fill="hsl(360, 100%, 67%)" opacity="0.98"></circle><circle r="11" cx="529" cy="130" fill="hsl(360, 100%, 67%)" opacity="0.11"></circle><circle r="5" cx="527" cy="619" fill="hsl(360, 100%, 67%)" opacity="0.67"></circle><circle r="8" cx="279" cy="67" fill="hsl(360, 100%, 67%)" opacity="0.27"></circle><circle r="4.5" cx="11" cy="131" fill="hsl(360, 100%, 67%)" opacity="0.91"></circle><circle r="8" cx="324" cy="479" fill="hsl(360, 100%, 67%)" opacity="0.44"></circle><circle r="8.5" cx="123" cy="659" fill="hsl(360, 100%, 67%)" opacity="0.59"></circle><circle r="11" cx="473" cy="470" fill="hsl(360, 100%, 67%)" opacity="0.21"></circle><circle r="5.5" cx="217" cy="368" fill="hsl(360, 100%, 67%)" opacity="0.14"></circle><circle r="5" cx="296" cy="422" fill="hsl(360, 100%, 67%)" opacity="0.58"></circle><circle r="5.5" cx="199" cy="43" fill="hsl(360, 100%, 67%)" opacity="0.28"></circle><circle r="10" cx="562" cy="782" fill="hsl(360, 100%, 67%)" opacity="0.61"></circle><circle r="5.5" cx="439" cy="386" fill="hsl(360, 100%, 67%)" opacity="0.22"></circle><circle r="9.5" cx="333" cy="570" fill="hsl(360, 100%, 67%)" opacity="0.93"></circle><circle r="9.5" cx="114" cy="488" fill="hsl(360, 100%, 67%)" opacity="0.11"></circle><circle r="4.5" cx="125" cy="324" fill="hsl(360, 100%, 67%)" opacity="0.12"></circle><circle r="5.5" cx="456" cy="400" fill="hsl(360, 100%, 67%)" opacity="0.86"></circle><circle r="9.5" cx="529" cy="540" fill="hsl(360, 100%, 67%)" opacity="0.84"></circle><circle r="9.5" cx="102" cy="261" fill="hsl(360, 100%, 67%)" opacity="0.58"></circle><circle r="6" cx="51" cy="680" fill="hsl(360, 100%, 67%)" opacity="0.45"></circle><circle r="10" cx="423" cy="331" fill="hsl(360, 100%, 67%)" opacity="0.92"></circle><circle r="5.5" cx="630" cy="698" fill="hsl(360, 100%, 67%)" opacity="0.98"></circle><circle r="5.5" cx="191" cy="220" fill="hsl(360, 100%, 67%)" opacity="0.89"></circle><circle r="8.5" cx="32" cy="634" fill="hsl(360, 100%, 67%)" opacity="0.79"></circle><circle r="6" cx="384" cy="152" fill="hsl(360, 100%, 67%)" opacity="0.77"></circle><circle r="4" cx="26" cy="418" fill="hsl(360, 100%, 67%)" opacity="0.40"></circle><circle r="8.5" cx="622" cy="247" fill="hsl(360, 100%, 67%)" opacity="0.31"></circle><circle r="7.5" cx="464" cy="659" fill="hsl(360, 100%, 67%)" opacity="0.78"></circle><circle r="9" cx="354" cy="739" fill="hsl(360, 100%, 67%)" opacity="0.29"></circle><circle r="4.5" cx="59" cy="139" fill="hsl(360, 100%, 67%)" opacity="0.24"></circle><circle r="9" cx="126" cy="218" fill="hsl(360, 100%, 67%)" opacity="0.57"></circle><circle r="8.5" cx="337" cy="246" fill="hsl(360, 100%, 67%)" opacity="0.21"></circle><circle r="4.5" cx="49" cy="444" fill="hsl(360, 100%, 67%)" opacity="0.66"></circle><circle r="4.5" cx="19" cy="776" fill="hsl(360, 100%, 67%)" opacity="0.14"></circle><circle r="8" cx="46" cy="522" fill="hsl(360, 100%, 67%)" opacity="0.41"></circle><circle r="7" cx="627" cy="174" fill="hsl(360, 100%, 67%)" opacity="0.85"></circle><circle r="7.5" cx="375" cy="258" fill="hsl(360, 100%, 67%)" opacity="0.16"></circle><circle r="8.5" cx="375" cy="469" fill="hsl(360, 100%, 67%)" opacity="0.48"></circle><circle r="7" cx="628" cy="748" fill="hsl(360, 100%, 67%)" opacity="0.58"></circle><circle r="5" cx="287" cy="388" fill="hsl(360, 100%, 67%)" opacity="0.73"></circle><circle r="8" cx="256" cy="333" fill="hsl(360, 100%, 67%)" opacity="0.55"></circle><circle r="4" cx="360" cy="339" fill="hsl(360, 100%, 67%)" opacity="0.18"></circle><circle r="7.5" cx="248" cy="30" fill="hsl(360, 100%, 67%)" opacity="0.48"></circle><circle r="10" cx="527" cy="504" fill="hsl(360, 100%, 67%)" opacity="0.28"></circle><circle r="12.5" cx="474" cy="600" fill="hsl(360, 100%, 67%)" opacity="0.23"></circle><circle r="7.5" cx="438" cy="771" fill="hsl(360, 100%, 67%)" opacity="0.16"></circle><circle r="13" cx="590" cy="503" fill="hsl(360, 100%, 67%)" opacity="0.28"></circle><circle r="11" cx="313" cy="39" fill="hsl(360, 100%, 67%)" opacity="0.76"></circle><circle r="7.5" cx="149" cy="387" fill="hsl(360, 100%, 67%)" opacity="0.83"></circle><circle r="5" cx="225" cy="504" fill="hsl(360, 100%, 67%)" opacity="0.56"></circle><circle r="6" cx="259" cy="499" fill="hsl(360, 100%, 67%)" opacity="0.60"></circle><circle r="8.5" cx="553" cy="688" fill="hsl(360, 100%, 67%)" opacity="0.47"></circle><circle r="8" cx="400" cy="27" fill="hsl(360, 100%, 67%)" opacity="0.35"></circle><circle r="11" cx="566" cy="290" fill="hsl(360, 100%, 67%)" opacity="0.55"></circle><circle r="4.5" cx="632" cy="371" fill="hsl(360, 100%, 67%)" opacity="0.29"></circle><circle r="10" cx="66" cy="301" fill="hsl(360, 100%, 67%)" opacity="0.60"></circle><circle r="10.5" cx="20" cy="289" fill="hsl(360, 100%, 67%)" opacity="0.59"></circle><circle r="6.5" cx="219" cy="423" fill="hsl(360, 100%, 67%)" opacity="0.61"></circle><circle r="5.5" cx="258" cy="403" fill="hsl(360, 100%, 67%)" opacity="0.89"></circle><circle r="8" cx="597" cy="427" fill="hsl(360, 100%, 67%)" opacity="0.10"></circle><circle r="6.5" cx="202" cy="344" fill="hsl(360, 100%, 67%)" opacity="0.18"></circle><circle r="10.5" cx="52" cy="252" fill="hsl(360, 100%, 67%)" opacity="0.36"></circle><circle r="4" cx="289" cy="668" fill="hsl(360, 100%, 67%)" opacity="0.73"></circle><circle r="6" cx="292" cy="585" fill="hsl(360, 100%, 67%)" opacity="0.94"></circle><circle r="8.5" cx="79" cy="673" fill="hsl(360, 100%, 67%)" opacity="0.28"></circle><circle r="8" cx="248" cy="243" fill="hsl(360, 100%, 67%)" opacity="0.82"></circle><circle r="6" cx="357" cy="204" fill="hsl(360, 100%, 67%)" opacity="0.91"></circle><circle r="6.5" cx="629" cy="405" fill="hsl(360, 100%, 67%)" opacity="0.92"></circle><circle r="7" cx="188" cy="664" fill="hsl(360, 100%, 67%)" opacity="0.43"></circle><circle r="2" cx="7" cy="417" fill="hsl(360, 100%, 67%)" opacity="0.54"></circle><circle r="6.5" cx="122" cy="82" fill="hsl(360, 100%, 67%)" opacity="0.27"></circle><circle r="7" cx="236" cy="203" fill="hsl(360, 100%, 67%)" opacity="0.16"></circle><circle r="6.5" cx="77" cy="540" fill="hsl(360, 100%, 67%)" opacity="0.41"></circle><circle r="8.5" cx="89" cy="156" fill="hsl(360, 100%, 67%)" opacity="1.00"></circle><circle r="6" cx="164" cy="785" fill="hsl(360, 100%, 67%)" opacity="0.39"></circle><circle r="7" cx="618" cy="75" fill="hsl(360, 100%, 67%)" opacity="0.40"></circle><circle r="11" cx="609" cy="781" fill="hsl(360, 100%, 67%)" opacity="0.55"></circle><circle r="10" cx="66" cy="579" fill="hsl(360, 100%, 67%)" opacity="0.70"></circle><circle r="5.5" cx="11" cy="740" fill="hsl(360, 100%, 67%)" opacity="0.82"></circle><circle r="6.5" cx="10" cy="460" fill="hsl(360, 100%, 67%)" opacity="0.64"></circle><circle r="9.5" cx="475" cy="244" fill="hsl(360, 100%, 67%)" opacity="0.71"></circle><circle r="8.5" cx="87" cy="355" fill="hsl(360, 100%, 67%)" opacity="0.24"></circle><circle r="7.5" cx="219" cy="585" fill="hsl(360, 100%, 67%)" opacity="0.82"></circle><circle r="6" cx="283" cy="699" fill="hsl(360, 100%, 67%)" opacity="0.21"></circle><circle r="8" cx="592" cy="220" fill="hsl(360, 100%, 67%)" opacity="0.29"></circle><circle r="7" cx="548" cy="441" fill="hsl(360, 100%, 67%)" opacity="0.35"></circle><circle r="5" cx="32" cy="758" fill="hsl(360, 100%, 67%)" opacity="0.15"></circle><circle r="8.5" cx="200" cy="745" fill="hsl(360, 100%, 67%)" opacity="0.25"></circle><circle r="8" cx="433" cy="451" fill="hsl(360, 100%, 67%)" opacity="0.16"></circle><circle r="6" cx="87" cy="443" fill="hsl(360, 100%, 67%)" opacity="0.94"></circle><circle r="8" cx="371" cy="311" fill="hsl(360, 100%, 67%)" opacity="0.20"></circle><circle r="5" cx="176" cy="332" fill="hsl(360, 100%, 67%)" opacity="0.97"></circle><circle r="7.5" cx="627" cy="488" fill="hsl(360, 100%, 67%)" opacity="0.58"></circle><circle r="5.5" cx="494" cy="391" fill="hsl(360, 100%, 67%)" opacity="0.82"></circle><circle r="3" cx="253" cy="595" fill="hsl(360, 100%, 67%)" opacity="0.45"></circle><circle r="8" cx="416" cy="238" fill="hsl(360, 100%, 67%)" opacity="0.42"></circle><circle r="4.5" cx="31" cy="436" fill="hsl(360, 100%, 67%)" opacity="0.73"></circle><circle r="6" cx="36" cy="472" fill="hsl(360, 100%, 67%)" opacity="0.16"></circle><circle r="10" cx="23" cy="595" fill="hsl(360, 100%, 67%)" opacity="0.48"></circle><circle r="7.5" cx="195" cy="254" fill="hsl(360, 100%, 67%)" opacity="0.99"></circle><circle r="11" cx="32" cy="338" fill="hsl(360, 100%, 67%)" opacity="0.32"></circle><circle r="9.5" cx="392" cy="561" fill="hsl(360, 100%, 67%)" opacity="0.34"></circle><circle r="7" cx="123" cy="358" fill="hsl(360, 100%, 67%)" opacity="0.39"></circle><circle r="9" cx="609" cy="601" fill="hsl(360, 100%, 67%)" opacity="0.47"></circle><circle r="9.5" cx="473" cy="195" fill="hsl(360, 100%, 67%)" opacity="0.31"></circle><circle r="7.5" cx="494" cy="280" fill="hsl(360, 100%, 67%)" opacity="0.64"></circle><circle r="5.5" cx="62" cy="61" fill="hsl(360, 100%, 67%)" opacity="0.47"></circle><circle r="5" cx="245" cy="378" fill="hsl(360, 100%, 67%)" opacity="0.19"></circle><circle r="8.5" cx="357" cy="17" fill="hsl(360, 100%, 67%)" opacity="0.47"></circle><circle r="7.5" cx="293" cy="318" fill="hsl(360, 100%, 67%)" opacity="0.22"></circle><circle r="8" cx="325" cy="694" fill="hsl(360, 100%, 67%)" opacity="0.30"></circle><circle r="7" cx="353" cy="783" fill="hsl(360, 100%, 67%)" opacity="0.56"></circle><circle r="6" cx="100" cy="319" fill="hsl(360, 100%, 67%)" opacity="0.43"></circle><circle r="10" cx="604" cy="302" fill="hsl(360, 100%, 67%)" opacity="0.80"></circle><circle r="10" cx="563" cy="572" fill="hsl(360, 100%, 67%)" opacity="0.39"></circle><circle r="6" cx="89" cy="70" fill="hsl(360, 100%, 67%)" opacity="0.60"></circle><circle r="8" cx="472" cy="426" fill="hsl(360, 100%, 67%)" opacity="0.80"></circle><circle r="10.5" cx="538" cy="262" fill="hsl(360, 100%, 67%)" opacity="0.46"></circle><circle r="6.5" cx="629" cy="335" fill="hsl(360, 100%, 67%)" opacity="0.44"></circle><circle r="7" cx="414" cy="366" fill="hsl(360, 100%, 67%)" opacity="0.46"></circle><circle r="6" cx="12" cy="699" fill="hsl(360, 100%, 67%)" opacity="0.41"></circle><circle r="5.5" cx="308" cy="370" fill="hsl(360, 100%, 67%)" opacity="0.48"></circle><circle r="9.5" cx="354" cy="619" fill="hsl(360, 100%, 67%)" opacity="0.35"></circle><circle r="11" cx="509" cy="450" fill="hsl(360, 100%, 67%)" opacity="0.36"></circle><circle r="7.5" cx="627" cy="623" fill="hsl(360, 100%, 67%)" opacity="0.30"></circle><circle r="7.5" cx="223" cy="777" fill="hsl(360, 100%, 67%)" opacity="0.13"></circle><circle r="6" cx="616" cy="143" fill="hsl(360, 100%, 67%)" opacity="0.21"></circle><circle r="13" cx="522" cy="352" fill="hsl(360, 100%, 67%)" opacity="0.29"></circle><circle r="7" cx="104" cy="524" fill="hsl(360, 100%, 67%)" opacity="0.26"></circle><circle r="4.5" cx="58" cy="111" fill="hsl(360, 100%, 67%)" opacity="0.78"></circle><circle r="5" cx="260" cy="669" fill="hsl(360, 100%, 67%)" opacity="0.13"></circle><circle r="12" cx="612" cy="662" fill="hsl(360, 100%, 67%)" opacity="0.58"></circle><circle r="7.5" cx="155" cy="750" fill="hsl(360, 100%, 67%)" opacity="0.96"></circle><circle r="6" cx="223" cy="168" fill="hsl(360, 100%, 67%)" opacity="0.63"></circle><circle r="7" cx="162" cy="120" fill="hsl(360, 100%, 67%)" opacity="0.81"></circle><circle r="7" cx="14" cy="247" fill="hsl(360, 100%, 67%)" opacity="0.19"></circle><circle r="4.5" cx="22" cy="164" fill="hsl(360, 100%, 67%)" opacity="0.58"></circle><circle r="6.5" cx="51" cy="168" fill="hsl(360, 100%, 67%)" opacity="0.30"></circle><circle r="10" cx="575" cy="646" fill="hsl(360, 100%, 67%)" opacity="0.77"></circle><circle r="5.5" cx="166" cy="687" fill="hsl(360, 100%, 67%)" opacity="0.31"></circle><circle r="5.5" cx="464" cy="727" fill="hsl(360, 100%, 67%)" opacity="0.77"></circle><circle r="10.5" cx="470" cy="327" fill="hsl(360, 100%, 67%)" opacity="0.11"></circle><circle r="5" cx="159" cy="311" fill="hsl(360, 100%, 67%)" opacity="0.12"></circle><circle r="8" cx="453" cy="693" fill="hsl(360, 100%, 67%)" opacity="0.59"></circle><circle r="8.5" cx="422" cy="520" fill="hsl(360, 100%, 67%)" opacity="0.52"></circle><circle r="7.5" cx="128" cy="130" fill="hsl(360, 100%, 67%)" opacity="0.16"></circle><circle r="6.5" cx="182" cy="151" fill="hsl(360, 100%, 67%)" opacity="0.98"></circle><circle r="4" cx="330" cy="435" fill="hsl(360, 100%, 67%)" opacity="0.70"></circle><circle r="5.5" cx="29" cy="100" fill="hsl(360, 100%, 67%)" opacity="0.42"></circle><circle r="5.5" cx="178" cy="86" fill="hsl(360, 100%, 67%)" opacity="0.46"></circle><circle r="8" cx="187" cy="446" fill="hsl(360, 100%, 67%)" opacity="0.81"></circle><circle r="3" cx="340" cy="344" fill="hsl(360, 100%, 67%)" opacity="0.93"></circle><circle r="4" cx="326" cy="353" fill="hsl(360, 100%, 67%)" opacity="0.81"></circle><circle r="6" cx="438" cy="423" fill="hsl(360, 100%, 67%)" opacity="0.63"></circle><circle r="9" cx="114" cy="746" fill="hsl(360, 100%, 67%)" opacity="0.26"></circle><circle r="7" cx="389" cy="710" fill="hsl(360, 100%, 67%)" opacity="0.78"></circle><circle r="8" cx="420" cy="483" fill="hsl(360, 100%, 67%)" opacity="0.78"></circle><circle r="8.5" cx="311" cy="739" fill="hsl(360, 100%, 67%)" opacity="0.28"></circle><circle r="7.5" cx="215" cy="62" fill="hsl(360, 100%, 67%)" opacity="0.91"></circle><circle r="4.5" cx="245" cy="704" fill="hsl(360, 100%, 67%)" opacity="0.40"></circle><circle r="12" cx="465" cy="141" fill="hsl(360, 100%, 67%)" opacity="0.62"></circle><circle r="6" cx="291" cy="152" fill="hsl(360, 100%, 67%)" opacity="0.72"></circle><circle r="10" cx="149" cy="622" fill="hsl(360, 100%, 67%)" opacity="0.18"></circle><circle r="8.5" cx="563" cy="610" fill="hsl(360, 100%, 67%)" opacity="0.62"></circle><circle r="7" cx="211" cy="705" fill="hsl(360, 100%, 67%)" opacity="0.53"></circle><circle r="5" cx="339" cy="526" fill="hsl(360, 100%, 67%)" opacity="0.97"></circle><circle r="7.5" cx="457" cy="48" fill="hsl(360, 100%, 67%)" opacity="0.98"></circle></svg>