<svg xmlns="http://www.w3.org/2000/svg" version="1.1" xmlns:xlink="http://www.w3.org/1999/xlink" xmlns:svgjs="http://svgjs.dev/svgjs" viewBox="0 0 640 800"><circle r="5" cx="226" cy="316" fill="hsl(360, 72%, 51%)" opacity="0.18"></circle><circle r="6.5" cx="317" cy="402" fill="hsl(360, 72%, 51%)" opacity="0.19"></circle><circle r="9.5" cx="308" cy="25" fill="hsl(360, 72%, 51%)" opacity="0.69"></circle><circle r="6" cx="507" cy="313" fill="hsl(360, 72%, 51%)" opacity="0.55"></circle><circle r="4" cx="90" cy="11" fill="hsl(360, 72%, 51%)" opacity="0.83"></circle><circle r="6.5" cx="51" cy="170" fill="hsl(360, 72%, 51%)" opacity="0.93"></circle><circle r="5" cx="72" cy="323" fill="hsl(360, 72%, 51%)" opacity="0.27"></circle><circle r="3" cx="526" cy="518" fill="hsl(360, 72%, 51%)" opacity="0.57"></circle><circle r="6.5" cx="333" cy="359" fill="hsl(360, 72%, 51%)" opacity="0.38"></circle><circle r="9.5" cx="76" cy="211" fill="hsl(360, 72%, 51%)" opacity="0.48"></circle><circle r="5.5" cx="117" cy="410" fill="hsl(360, 72%, 51%)" opacity="0.11"></circle><circle r="4.5" cx="448" cy="764" fill="hsl(360, 72%, 51%)" opacity="0.61"></circle><circle r="3.5" cx="201" cy="334" fill="hsl(360, 72%, 51%)" opacity="0.41"></circle><circle r="6" cx="131" cy="183" fill="hsl(360, 72%, 51%)" opacity="0.41"></circle><circle r="8.5" cx="212" cy="19" fill="hsl(360, 72%, 51%)" opacity="0.66"></circle><circle r="7" cx="373" cy="216" fill="hsl(360, 72%, 51%)" opacity="0.92"></circle><circle r="7.5" cx="350" cy="421" fill="hsl(360, 72%, 51%)" opacity="0.57"></circle><circle r="7" cx="74" cy="47" fill="hsl(360, 72%, 51%)" opacity="0.16"></circle><circle r="6.5" cx="449" cy="728" fill="hsl(360, 72%, 51%)" opacity="0.61"></circle><circle r="5" cx="509" cy="16" fill="hsl(360, 72%, 51%)" opacity="0.40"></circle><circle r="6" cx="397" cy="219" fill="hsl(360, 72%, 51%)" opacity="0.57"></circle><circle r="6.5" cx="544" cy="37" fill="hsl(360, 72%, 51%)" opacity="0.51"></circle><circle r="4.5" cx="490" cy="527" fill="hsl(360, 72%, 51%)" opacity="0.32"></circle><circle r="4.5" cx="159" cy="11" fill="hsl(360, 72%, 51%)" opacity="0.37"></circle><circle r="5.5" cx="126" cy="131" fill="hsl(360, 72%, 51%)" opacity="0.82"></circle><circle r="7" cx="451" cy="451" fill="hsl(360, 72%, 51%)" opacity="0.66"></circle><circle r="5.5" cx="190" cy="445" fill="hsl(360, 72%, 51%)" opacity="0.82"></circle><circle r="7.5" cx="548" cy="617" fill="hsl(360, 72%, 51%)" opacity="0.73"></circle><circle r="9.5" cx="54" cy="433" fill="hsl(360, 72%, 51%)" opacity="0.77"></circle><circle r="6" cx="257" cy="572" fill="hsl(360, 72%, 51%)" opacity="0.98"></circle><circle r="6" cx="523" cy="374" fill="hsl(360, 72%, 51%)" opacity="0.17"></circle><circle r="6" cx="73" cy="651" fill="hsl(360, 72%, 51%)" opacity="0.59"></circle><circle r="5.5" cx="213" cy="375" fill="hsl(360, 72%, 51%)" opacity="0.94"></circle><circle r="6.5" cx="66" cy="610" fill="hsl(360, 72%, 51%)" opacity="0.56"></circle><circle r="4.5" cx="152" cy="355" fill="hsl(360, 72%, 51%)" opacity="0.97"></circle><circle r="6" cx="436" cy="479" fill="hsl(360, 72%, 51%)" opacity="0.84"></circle><circle r="4" cx="517" cy="546" fill="hsl(360, 72%, 51%)" opacity="0.58"></circle><circle r="5.5" cx="351" cy="37" fill="hsl(360, 72%, 51%)" opacity="0.15"></circle><circle r="5" cx="107" cy="40" fill="hsl(360, 72%, 51%)" opacity="0.51"></circle><circle r="10.5" cx="365" cy="467" fill="hsl(360, 72%, 51%)" opacity="0.17"></circle><circle r="7.5" cx="320" cy="476" fill="hsl(360, 72%, 51%)" opacity="0.64"></circle><circle r="5" cx="314" cy="237" fill="hsl(360, 72%, 51%)" opacity="0.28"></circle><circle r="4" cx="296" cy="126" fill="hsl(360, 72%, 51%)" opacity="0.25"></circle><circle r="6" cx="579" cy="162" fill="hsl(360, 72%, 51%)" opacity="0.63"></circle><circle r="5.5" cx="519" cy="191" fill="hsl(360, 72%, 51%)" opacity="0.65"></circle><circle r="5" cx="554" cy="173" fill="hsl(360, 72%, 51%)" opacity="0.94"></circle><circle r="5" cx="309" cy="370" fill="hsl(360, 72%, 51%)" opacity="0.84"></circle><circle r="3.5" cx="159" cy="41" fill="hsl(360, 72%, 51%)" opacity="0.19"></circle><circle r="5.5" cx="567" cy="546" fill="hsl(360, 72%, 51%)" opacity="0.87"></circle><circle r="4.5" cx="143" cy="590" fill="hsl(360, 72%, 51%)" opacity="0.12"></circle><circle r="3.5" cx="311" cy="744" fill="hsl(360, 72%, 51%)" opacity="0.40"></circle><circle r="5.5" cx="102" cy="784" fill="hsl(360, 72%, 51%)" opacity="0.80"></circle><circle r="7.5" cx="13" cy="89" fill="hsl(360, 72%, 51%)" opacity="0.72"></circle><circle r="8.5" cx="413" cy="272" fill="hsl(360, 72%, 51%)" opacity="0.82"></circle><circle r="5.5" cx="249" cy="338" fill="hsl(360, 72%, 51%)" opacity="0.33"></circle><circle r="7" cx="221" cy="648" fill="hsl(360, 72%, 51%)" opacity="0.56"></circle><circle r="6" cx="629" cy="183" fill="hsl(360, 72%, 51%)" opacity="0.45"></circle><circle r="5" cx="558" cy="260" fill="hsl(360, 72%, 51%)" opacity="0.33"></circle><circle r="7" cx="373" cy="787" fill="hsl(360, 72%, 51%)" opacity="0.63"></circle><circle r="5" cx="333" cy="775" fill="hsl(360, 72%, 51%)" opacity="0.83"></circle><circle r="7" cx="543" cy="437" fill="hsl(360, 72%, 51%)" opacity="0.15"></circle><circle r="8.5" cx="603" cy="513" fill="hsl(360, 72%, 51%)" opacity="0.73"></circle><circle r="4" cx="311" cy="216" fill="hsl(360, 72%, 51%)" opacity="0.78"></circle><circle r="6" cx="98" cy="683" fill="hsl(360, 72%, 51%)" opacity="0.31"></circle><circle r="6.5" cx="435" cy="527" fill="hsl(360, 72%, 51%)" opacity="0.62"></circle><circle r="8" cx="80" cy="514" fill="hsl(360, 72%, 51%)" opacity="0.22"></circle><circle r="6.5" cx="104" cy="591" fill="hsl(360, 72%, 51%)" opacity="0.74"></circle><circle r="6" cx="436" cy="787" fill="hsl(360, 72%, 51%)" opacity="0.84"></circle><circle r="9.5" cx="613" cy="684" fill="hsl(360, 72%, 51%)" opacity="0.71"></circle><circle r="7.5" cx="88" cy="251" fill="hsl(360, 72%, 51%)" opacity="0.39"></circle><circle r="5.5" cx="621" cy="208" fill="hsl(360, 72%, 51%)" opacity="0.53"></circle><circle r="6.5" cx="624" cy="788" fill="hsl(360, 72%, 51%)" opacity="0.42"></circle><circle r="6" cx="523" cy="158" fill="hsl(360, 72%, 51%)" opacity="0.77"></circle><circle r="11.5" cx="360" cy="632" fill="hsl(360, 72%, 51%)" opacity="0.16"></circle><circle r="8.5" cx="624" cy="601" fill="hsl(360, 72%, 51%)" opacity="0.74"></circle><circle r="5" cx="419" cy="511" fill="hsl(360, 72%, 51%)" opacity="0.25"></circle><circle r="6.5" cx="549" cy="134" fill="hsl(360, 72%, 51%)" opacity="0.77"></circle><circle r="6" cx="606" cy="226" fill="hsl(360, 72%, 51%)" opacity="0.35"></circle><circle r="8" cx="117" cy="81" fill="hsl(360, 72%, 51%)" opacity="0.36"></circle><circle r="9" cx="14" cy="774" fill="hsl(360, 72%, 51%)" opacity="0.17"></circle><circle r="7" cx="604" cy="319" fill="hsl(360, 72%, 51%)" opacity="0.21"></circle><circle r="6" cx="251" cy="753" fill="hsl(360, 72%, 51%)" opacity="0.76"></circle><circle r="11" cx="381" cy="400" fill="hsl(360, 72%, 51%)" opacity="0.85"></circle><circle r="6.5" cx="90" cy="166" fill="hsl(360, 72%, 51%)" opacity="0.83"></circle><circle r="5.5" cx="377" cy="18" fill="hsl(360, 72%, 51%)" opacity="0.40"></circle><circle r="8" cx="583" cy="705" fill="hsl(360, 72%, 51%)" opacity="0.60"></circle><circle r="13" cx="366" cy="681" fill="hsl(360, 72%, 51%)" opacity="0.78"></circle><circle r="8" cx="499" cy="658" fill="hsl(360, 72%, 51%)" opacity="0.16"></circle><circle r="7.5" cx="345" cy="219" fill="hsl(360, 72%, 51%)" opacity="0.23"></circle><circle r="5.5" cx="301" cy="430" fill="hsl(360, 72%, 51%)" opacity="0.17"></circle><circle r="7.5" cx="591" cy="567" fill="hsl(360, 72%, 51%)" opacity="0.26"></circle><circle r="7.5" cx="598" cy="740" fill="hsl(360, 72%, 51%)" opacity="0.43"></circle><circle r="4.5" cx="294" cy="718" fill="hsl(360, 72%, 51%)" opacity="0.22"></circle><circle r="7.5" cx="82" cy="386" fill="hsl(360, 72%, 51%)" opacity="0.55"></circle><circle r="9" cx="332" cy="543" fill="hsl(360, 72%, 51%)" opacity="0.40"></circle><circle r="3.5" cx="179" cy="527" fill="hsl(360, 72%, 51%)" opacity="0.78"></circle><circle r="9.5" cx="548" cy="664" fill="hsl(360, 72%, 51%)" opacity="0.44"></circle><circle r="6.5" cx="278" cy="496" fill="hsl(360, 72%, 51%)" opacity="0.82"></circle><circle r="8" cx="497" cy="770" fill="hsl(360, 72%, 51%)" opacity="0.37"></circle><circle r="7" cx="413" cy="195" fill="hsl(360, 72%, 51%)" opacity="0.60"></circle><circle r="7.5" cx="254" cy="375" fill="hsl(360, 72%, 51%)" opacity="0.54"></circle><circle r="10" cx="535" cy="725" fill="hsl(360, 72%, 51%)" opacity="0.48"></circle><circle r="3.5" cx="269" cy="313" fill="hsl(360, 72%, 51%)" opacity="0.66"></circle><circle r="13.5" cx="350" cy="303" fill="hsl(360, 72%, 51%)" opacity="0.74"></circle><circle r="7" cx="142" cy="686" fill="hsl(360, 72%, 51%)" opacity="0.56"></circle><circle r="4.5" cx="22" cy="147" fill="hsl(360, 72%, 51%)" opacity="0.62"></circle><circle r="4.5" cx="102" cy="305" fill="hsl(360, 72%, 51%)" opacity="0.65"></circle><circle r="5" cx="188" cy="487" fill="hsl(360, 72%, 51%)" opacity="0.56"></circle><circle r="10" cx="361" cy="734" fill="hsl(360, 72%, 51%)" opacity="0.64"></circle><circle r="6.5" cx="600" cy="13" fill="hsl(360, 72%, 51%)" opacity="0.31"></circle><circle r="6" cx="628" cy="237" fill="hsl(360, 72%, 51%)" opacity="0.50"></circle><circle r="3.5" cx="169" cy="584" fill="hsl(360, 72%, 51%)" opacity="0.77"></circle><circle r="5.5" cx="196" cy="281" fill="hsl(360, 72%, 51%)" opacity="0.75"></circle><circle r="4.5" cx="278" cy="334" fill="hsl(360, 72%, 51%)" opacity="0.16"></circle><circle r="8" cx="60" cy="361" fill="hsl(360, 72%, 51%)" opacity="0.68"></circle><circle r="4.5" cx="457" cy="492" fill="hsl(360, 72%, 51%)" opacity="0.36"></circle><circle r="7" cx="455" cy="376" fill="hsl(360, 72%, 51%)" opacity="0.78"></circle><circle r="6.5" cx="488" cy="462" fill="hsl(360, 72%, 51%)" opacity="0.17"></circle><circle r="8.5" cx="308" cy="266" fill="hsl(360, 72%, 51%)" opacity="0.63"></circle><circle r="5" cx="544" cy="529" fill="hsl(360, 72%, 51%)" opacity="0.87"></circle><circle r="12" cx="25" cy="382" fill="hsl(360, 72%, 51%)" opacity="0.96"></circle><circle r="6.5" cx="268" cy="461" fill="hsl(360, 72%, 51%)" opacity="0.13"></circle><circle r="7" cx="198" cy="691" fill="hsl(360, 72%, 51%)" opacity="0.68"></circle><circle r="7.5" cx="75" cy="104" fill="hsl(360, 72%, 51%)" opacity="0.92"></circle><circle r="7.5" cx="503" cy="56" fill="hsl(360, 72%, 51%)" opacity="0.21"></circle><circle r="7.5" cx="427" cy="162" fill="hsl(360, 72%, 51%)" opacity="0.57"></circle><circle r="7" cx="609" cy="769" fill="hsl(360, 72%, 51%)" opacity="0.90"></circle><circle r="4" cx="261" cy="293" fill="hsl(360, 72%, 51%)" opacity="0.96"></circle><circle r="4.5" cx="39" cy="791" fill="hsl(360, 72%, 51%)" opacity="0.13"></circle><circle r="6" cx="301" cy="643" fill="hsl(360, 72%, 51%)" opacity="0.45"></circle><circle r="4" cx="629" cy="7" fill="hsl(360, 72%, 51%)" opacity="0.22"></circle><circle r="7.5" cx="502" cy="609" fill="hsl(360, 72%, 51%)" opacity="0.10"></circle><circle r="7" cx="472" cy="214" fill="hsl(360, 72%, 51%)" opacity="0.58"></circle><circle r="10.5" cx="30" cy="501" fill="hsl(360, 72%, 51%)" opacity="0.75"></circle><circle r="3.5" cx="290" cy="107" fill="hsl(360, 72%, 51%)" opacity="0.90"></circle><circle r="7.5" cx="334" cy="703" fill="hsl(360, 72%, 51%)" opacity="0.21"></circle><circle r="5.5" cx="185" cy="91" fill="hsl(360, 72%, 51%)" opacity="0.23"></circle><circle r="10.5" cx="410" cy="429" fill="hsl(360, 72%, 51%)" opacity="0.76"></circle><circle r="3" cx="196" cy="546" fill="hsl(360, 72%, 51%)" opacity="0.60"></circle><circle r="4" cx="146" cy="389" fill="hsl(360, 72%, 51%)" opacity="0.17"></circle><circle r="8" cx="291" cy="587" fill="hsl(360, 72%, 51%)" opacity="0.61"></circle><circle r="7" cx="460" cy="543" fill="hsl(360, 72%, 51%)" opacity="0.52"></circle><circle r="4" cx="102" cy="340" fill="hsl(360, 72%, 51%)" opacity="0.72"></circle><circle r="9.5" cx="16" cy="438" fill="hsl(360, 72%, 51%)" opacity="0.99"></circle><circle r="7" cx="114" cy="484" fill="hsl(360, 72%, 51%)" opacity="0.97"></circle><circle r="5.5" cx="580" cy="481" fill="hsl(360, 72%, 51%)" opacity="0.86"></circle><circle r="8" cx="464" cy="416" fill="hsl(360, 72%, 51%)" opacity="0.58"></circle><circle r="5" cx="476" cy="505" fill="hsl(360, 72%, 51%)" opacity="0.37"></circle><circle r="12" cx="416" cy="564" fill="hsl(360, 72%, 51%)" opacity="0.52"></circle><circle r="4.5" cx="509" cy="571" fill="hsl(360, 72%, 51%)" opacity="0.96"></circle><circle r="7" cx="182" cy="747" fill="hsl(360, 72%, 51%)" opacity="0.80"></circle><circle r="8.5" cx="362" cy="350" fill="hsl(360, 72%, 51%)" opacity="0.48"></circle><circle r="8.5" cx="468" cy="103" fill="hsl(360, 72%, 51%)" opacity="0.18"></circle><circle r="4.5" cx="548" cy="469" fill="hsl(360, 72%, 51%)" opacity="0.92"></circle><circle r="7" cx="492" cy="142" fill="hsl(360, 72%, 51%)" opacity="0.18"></circle><circle r="7" cx="482" cy="711" fill="hsl(360, 72%, 51%)" opacity="0.69"></circle><circle r="8" cx="529" cy="91" fill="hsl(360, 72%, 51%)" opacity="0.47"></circle><circle r="7.5" cx="51" cy="704" fill="hsl(360, 72%, 51%)" opacity="0.28"></circle><circle r="6" cx="206" cy="599" fill="hsl(360, 72%, 51%)" opacity="0.88"></circle><circle r="4.5" cx="297" cy="694" fill="hsl(360, 72%, 51%)" opacity="0.50"></circle><circle r="7" cx="293" cy="773" fill="hsl(360, 72%, 51%)" opacity="0.64"></circle><circle r="4.5" cx="289" cy="385" fill="hsl(360, 72%, 51%)" opacity="0.51"></circle><circle r="8.5" cx="559" cy="363" fill="hsl(360, 72%, 51%)" opacity="0.17"></circle><circle r="4" cx="212" cy="522" fill="hsl(360, 72%, 51%)" opacity="0.41"></circle><circle r="9" cx="350" cy="113" fill="hsl(360, 72%, 51%)" opacity="0.82"></circle><circle r="10" cx="405" cy="309" fill="hsl(360, 72%, 51%)" opacity="0.28"></circle><circle r="4.5" cx="532" cy="583" fill="hsl(360, 72%, 51%)" opacity="0.48"></circle><circle r="4.5" cx="458" cy="16" fill="hsl(360, 72%, 51%)" opacity="0.41"></circle><circle r="4.5" cx="474" cy="349" fill="hsl(360, 72%, 51%)" opacity="0.24"></circle><circle r="6.5" cx="29" cy="194" fill="hsl(360, 72%, 51%)" opacity="0.53"></circle><circle r="8.5" cx="252" cy="711" fill="hsl(360, 72%, 51%)" opacity="0.75"></circle><circle r="10" cx="224" cy="83" fill="hsl(360, 72%, 51%)" opacity="0.78"></circle><circle r="6" cx="357" cy="763" fill="hsl(360, 72%, 51%)" opacity="0.20"></circle><circle r="7.5" cx="251" cy="188" fill="hsl(360, 72%, 51%)" opacity="0.55"></circle><circle r="8" cx="54" cy="293" fill="hsl(360, 72%, 51%)" opacity="0.36"></circle><circle r="8" cx="569" cy="77" fill="hsl(360, 72%, 51%)" opacity="0.49"></circle><circle r="3.5" cx="322" cy="758" fill="hsl(360, 72%, 51%)" opacity="0.48"></circle><circle r="3.5" cx="166" cy="552" fill="hsl(360, 72%, 51%)" opacity="0.61"></circle><circle r="5" cx="555" cy="496" fill="hsl(360, 72%, 51%)" opacity="0.42"></circle><circle r="5.5" cx="571" cy="518" fill="hsl(360, 72%, 51%)" opacity="0.50"></circle><circle r="8.5" cx="43" cy="70" fill="hsl(360, 72%, 51%)" opacity="0.47"></circle><circle r="5.5" cx="540" cy="299" fill="hsl(360, 72%, 51%)" opacity="0.44"></circle><circle r="6.5" cx="11" cy="173" fill="hsl(360, 72%, 51%)" opacity="0.83"></circle><circle r="7.5" cx="357" cy="177" fill="hsl(360, 72%, 51%)" opacity="0.64"></circle><circle r="6.5" cx="603" cy="178" fill="hsl(360, 72%, 51%)" opacity="1.00"></circle><circle r="6.5" cx="335" cy="155" fill="hsl(360, 72%, 51%)" opacity="0.61"></circle><circle r="4" cx="184" cy="362" fill="hsl(360, 72%, 51%)" opacity="0.91"></circle><circle r="7.5" cx="579" cy="113" fill="hsl(360, 72%, 51%)" opacity="0.83"></circle><circle r="6.5" cx="613" cy="292" fill="hsl(360, 72%, 51%)" opacity="0.22"></circle><circle r="4" cx="508" cy="509" fill="hsl(360, 72%, 51%)" opacity="0.89"></circle><circle r="5" cx="124" cy="721" fill="hsl(360, 72%, 51%)" opacity="0.14"></circle><circle r="6.5" cx="70" cy="773" fill="hsl(360, 72%, 51%)" opacity="0.29"></circle><circle r="5" cx="126" cy="324" fill="hsl(360, 72%, 51%)" opacity="0.25"></circle><circle r="5.5" cx="107" cy="647" fill="hsl(360, 72%, 51%)" opacity="0.31"></circle><circle r="6.5" cx="581" cy="232" fill="hsl(360, 72%, 51%)" opacity="0.16"></circle><circle r="5" cx="234" cy="445" fill="hsl(360, 72%, 51%)" opacity="0.81"></circle><circle r="6" cx="49" cy="142" fill="hsl(360, 72%, 51%)" opacity="0.93"></circle><circle r="5.5" cx="185" cy="239" fill="hsl(360, 72%, 51%)" opacity="0.40"></circle><circle r="8" cx="424" cy="122" fill="hsl(360, 72%, 51%)" opacity="0.86"></circle><circle r="9" cx="404" cy="466" fill="hsl(360, 72%, 51%)" opacity="0.76"></circle><circle r="5" cx="87" cy="282" fill="hsl(360, 72%, 51%)" opacity="0.20"></circle><circle r="5" cx="236" cy="550" fill="hsl(360, 72%, 51%)" opacity="0.29"></circle><circle r="7.5" cx="150" cy="633" fill="hsl(360, 72%, 51%)" opacity="0.93"></circle><circle r="9" cx="617" cy="145" fill="hsl(360, 72%, 51%)" opacity="0.42"></circle><circle r="7.5" cx="343" cy="386" fill="hsl(360, 72%, 51%)" opacity="0.69"></circle><circle r="5.5" cx="261" cy="520" fill="hsl(360, 72%, 51%)" opacity="0.64"></circle><circle r="5.5" cx="514" cy="483" fill="hsl(360, 72%, 51%)" opacity="0.31"></circle><circle r="4" cx="138" cy="47" fill="hsl(360, 72%, 51%)" opacity="0.92"></circle><circle r="9.5" cx="622" cy="476" fill="hsl(360, 72%, 51%)" opacity="0.31"></circle><circle r="4" cx="225" cy="474" fill="hsl(360, 72%, 51%)" opacity="0.58"></circle><circle r="5" cx="487" cy="556" fill="hsl(360, 72%, 51%)" opacity="0.56"></circle><circle r="13.5" cx="413" cy="696" fill="hsl(360, 72%, 51%)" opacity="0.23"></circle><circle r="7" cx="613" cy="110" fill="hsl(360, 72%, 51%)" opacity="0.89"></circle><circle r="4.5" cx="189" cy="36" fill="hsl(360, 72%, 51%)" opacity="0.52"></circle><circle r="11" cx="376" cy="537" fill="hsl(360, 72%, 51%)" opacity="0.58"></circle><circle r="8.5" cx="568" cy="318" fill="hsl(360, 72%, 51%)" opacity="0.76"></circle><circle r="10" cx="585" cy="398" fill="hsl(360, 72%, 51%)" opacity="0.96"></circle><circle r="7" cx="511" cy="423" fill="hsl(360, 72%, 51%)" opacity="0.81"></circle><circle r="7.5" cx="547" cy="779" fill="hsl(360, 72%, 51%)" opacity="0.17"></circle><circle r="4.5" cx="136" cy="554" fill="hsl(360, 72%, 51%)" opacity="0.38"></circle><circle r="4" cx="481" cy="321" fill="hsl(360, 72%, 51%)" opacity="0.71"></circle><circle r="7.5" cx="458" cy="181" fill="hsl(360, 72%, 51%)" opacity="0.64"></circle><circle r="9.5" cx="22" cy="728" fill="hsl(360, 72%, 51%)" opacity="0.63"></circle><circle r="5.5" cx="215" cy="216" fill="hsl(360, 72%, 51%)" opacity="0.59"></circle><circle r="3" cx="193" cy="568" fill="hsl(360, 72%, 51%)" opacity="0.54"></circle><circle r="6.5" cx="31" cy="664" fill="hsl(360, 72%, 51%)" opacity="0.87"></circle><circle r="4.5" cx="160" cy="507" fill="hsl(360, 72%, 51%)" opacity="0.73"></circle><circle r="7.5" cx="279" cy="80" fill="hsl(360, 72%, 51%)" opacity="0.49"></circle><circle r="7.5" cx="334" cy="445" fill="hsl(360, 72%, 51%)" opacity="0.49"></circle><circle r="5" cx="114" cy="752" fill="hsl(360, 72%, 51%)" opacity="0.50"></circle><circle r="5" cx="9" cy="131" fill="hsl(360, 72%, 51%)" opacity="0.38"></circle><circle r="6" cx="414" cy="29" fill="hsl(360, 72%, 51%)" opacity="0.15"></circle><circle r="7" cx="98" cy="438" fill="hsl(360, 72%, 51%)" opacity="0.59"></circle><circle r="6" cx="558" cy="575" fill="hsl(360, 72%, 51%)" opacity="0.19"></circle><circle r="9" cx="261" cy="620" fill="hsl(360, 72%, 51%)" opacity="0.88"></circle><circle r="9.5" cx="55" cy="576" fill="hsl(360, 72%, 51%)" opacity="0.95"></circle><circle r="5.5" cx="66" cy="680" fill="hsl(360, 72%, 51%)" opacity="0.29"></circle><circle r="10.5" cx="397" cy="353" fill="hsl(360, 72%, 51%)" opacity="0.26"></circle><circle r="8.5" cx="386" cy="138" fill="hsl(360, 72%, 51%)" opacity="0.41"></circle><circle r="8" cx="297" cy="548" fill="hsl(360, 72%, 51%)" opacity="0.28"></circle><circle r="11.5" cx="27" cy="25" fill="hsl(360, 72%, 51%)" opacity="0.76"></circle><circle r="6.5" cx="383" cy="80" fill="hsl(360, 72%, 51%)" opacity="0.61"></circle><circle r="7.5" cx="387" cy="180" fill="hsl(360, 72%, 51%)" opacity="0.66"></circle><circle r="6" cx="149" cy="462" fill="hsl(360, 72%, 51%)" opacity="0.77"></circle><circle r="11.5" cx="20" cy="601" fill="hsl(360, 72%, 51%)" opacity="0.24"></circle><circle r="8" cx="617" cy="650" fill="hsl(360, 72%, 51%)" opacity="0.87"></circle><circle r="11.5" cx="259" cy="31" fill="hsl(360, 72%, 51%)" opacity="0.51"></circle><circle r="8" cx="80" cy="727" fill="hsl(360, 72%, 51%)" opacity="0.72"></circle><circle r="7.5" cx="61" cy="474" fill="hsl(360, 72%, 51%)" opacity="0.42"></circle><circle r="5.5" cx="126" cy="523" fill="hsl(360, 72%, 51%)" opacity="0.59"></circle><circle r="7.5" cx="575" cy="27" fill="hsl(360, 72%, 51%)" opacity="0.60"></circle><circle r="8" cx="329" cy="590" fill="hsl(360, 72%, 51%)" opacity="0.16"></circle><circle r="10" cx="615" cy="358" fill="hsl(360, 72%, 51%)" opacity="0.90"></circle><circle r="7.5" cx="90" cy="552" fill="hsl(360, 72%, 51%)" opacity="0.35"></circle><circle r="5.5" cx="298" cy="456" fill="hsl(360, 72%, 51%)" opacity="0.93"></circle><circle r="7.5" cx="315" cy="335" fill="hsl(360, 72%, 51%)" opacity="0.27"></circle><circle r="7" cx="33" cy="636" fill="hsl(360, 72%, 51%)" opacity="0.93"></circle><circle r="6" cx="553" cy="220" fill="hsl(360, 72%, 51%)" opacity="0.28"></circle><circle r="8" cx="430" cy="229" fill="hsl(360, 72%, 51%)" opacity="0.33"></circle><circle r="6" cx="291" cy="670" fill="hsl(360, 72%, 51%)" opacity="0.71"></circle><circle r="7.5" cx="464" cy="676" fill="hsl(360, 72%, 51%)" opacity="0.56"></circle><circle r="7.5" cx="314" cy="191" fill="hsl(360, 72%, 51%)" opacity="0.53"></circle><circle r="4" cx="313" cy="729" fill="hsl(360, 72%, 51%)" opacity="0.42"></circle><circle r="6" cx="163" cy="119" fill="hsl(360, 72%, 51%)" opacity="0.27"></circle><circle r="5" cx="167" cy="414" fill="hsl(360, 72%, 51%)" opacity="0.78"></circle><circle r="5.5" cx="227" cy="411" fill="hsl(360, 72%, 51%)" opacity="0.81"></circle><circle r="8" cx="275" cy="226" fill="hsl(360, 72%, 51%)" opacity="0.92"></circle><circle r="4.5" cx="239" cy="785" fill="hsl(360, 72%, 51%)" opacity="0.34"></circle><circle r="4.5" cx="469" cy="750" fill="hsl(360, 72%, 51%)" opacity="0.16"></circle><circle r="9" cx="28" cy="225" fill="hsl(360, 72%, 51%)" opacity="0.61"></circle><circle r="6.5" cx="457" cy="55" fill="hsl(360, 72%, 51%)" opacity="0.80"></circle><circle r="12.5" cx="404" cy="751" fill="hsl(360, 72%, 51%)" opacity="0.47"></circle><circle r="4.5" cx="510" cy="242" fill="hsl(360, 72%, 51%)" opacity="0.78"></circle><circle r="4" cx="290" cy="406" fill="hsl(360, 72%, 51%)" opacity="0.28"></circle><circle r="6.5" cx="395" cy="246" fill="hsl(360, 72%, 51%)" opacity="0.70"></circle><circle r="8" cx="332" cy="74" fill="hsl(360, 72%, 51%)" opacity="0.47"></circle><circle r="5.5" cx="630" cy="325" fill="hsl(360, 72%, 51%)" opacity="0.82"></circle><circle r="8.5" cx="444" cy="323" fill="hsl(360, 72%, 51%)" opacity="0.93"></circle><circle r="3.5" cx="83" cy="344" fill="hsl(360, 72%, 51%)" opacity="0.31"></circle><circle r="11" cx="364" cy="577" fill="hsl(360, 72%, 51%)" opacity="0.73"></circle><circle r="5" cx="524" cy="270" fill="hsl(360, 72%, 51%)" opacity="0.58"></circle><circle r="7.5" cx="13" cy="323" fill="hsl(360, 72%, 51%)" opacity="0.47"></circle><circle r="8.5" cx="321" cy="623" fill="hsl(360, 72%, 51%)" opacity="0.72"></circle><circle r="8.5" cx="40" cy="330" fill="hsl(360, 72%, 51%)" opacity="0.22"></circle><circle r="5" cx="286" cy="357" fill="hsl(360, 72%, 51%)" opacity="0.89"></circle><circle r="4.5" cx="521" cy="221" fill="hsl(360, 72%, 51%)" opacity="0.81"></circle><circle r="4.5" cx="155" cy="71" fill="hsl(360, 72%, 51%)" opacity="0.84"></circle><circle r="8.5" cx="394" cy="502" fill="hsl(360, 72%, 51%)" opacity="0.69"></circle><circle r="9" cx="623" cy="548" fill="hsl(360, 72%, 51%)" opacity="0.55"></circle><circle r="8" cx="13" cy="686" fill="hsl(360, 72%, 51%)" opacity="0.23"></circle><circle r="4.5" cx="130" cy="20" fill="hsl(360, 72%, 51%)" opacity="0.58"></circle><circle r="9.5" cx="588" cy="445" fill="hsl(360, 72%, 51%)" opacity="0.64"></circle><circle r="5" cx="155" cy="782" fill="hsl(360, 72%, 51%)" opacity="0.36"></circle><circle r="7.5" cx="190" cy="162" fill="hsl(360, 72%, 51%)" opacity="0.23"></circle><circle r="4" cx="231" cy="500" fill="hsl(360, 72%, 51%)" opacity="0.59"></circle><circle r="7.5" cx="625" cy="47" fill="hsl(360, 72%, 51%)" opacity="0.29"></circle><circle r="9.5" cx="591" cy="619" fill="hsl(360, 72%, 51%)" opacity="0.26"></circle><circle r="8.5" cx="424" cy="383" fill="hsl(360, 72%, 51%)" opacity="0.79"></circle><circle r="10.5" cx="472" cy="263" fill="hsl(360, 72%, 51%)" opacity="0.67"></circle><circle r="10" cx="348" cy="508" fill="hsl(360, 72%, 51%)" opacity="0.36"></circle><circle r="6.5" cx="419" cy="76" fill="hsl(360, 72%, 51%)" opacity="0.67"></circle><circle r="4" cx="317" cy="791" fill="hsl(360, 72%, 51%)" opacity="0.45"></circle><circle r="7" cx="249" cy="263" fill="hsl(360, 72%, 51%)" opacity="0.85"></circle><circle r="6.5" cx="40" cy="113" fill="hsl(360, 72%, 51%)" opacity="0.67"></circle><circle r="5" cx="489" cy="378" fill="hsl(360, 72%, 51%)" opacity="0.92"></circle><circle r="8.5" cx="249" cy="139" fill="hsl(360, 72%, 51%)" opacity="0.52"></circle><circle r="4" cx="158" cy="313" fill="hsl(360, 72%, 51%)" opacity="0.29"></circle><circle r="12" cx="23" cy="544" fill="hsl(360, 72%, 51%)" opacity="0.43"></circle><circle r="8.5" cx="301" cy="302" fill="hsl(360, 72%, 51%)" opacity="0.34"></circle><circle r="11.5" cx="355" cy="257" fill="hsl(360, 72%, 51%)" opacity="0.51"></circle><circle r="7" cx="139" cy="273" fill="hsl(360, 72%, 51%)" opacity="0.29"></circle><circle r="10" cx="439" cy="644" fill="hsl(360, 72%, 51%)" opacity="0.61"></circle><circle r="8.5" cx="604" cy="66" fill="hsl(360, 72%, 51%)" opacity="0.46"></circle><circle r="6" cx="304" cy="151" fill="hsl(360, 72%, 51%)" opacity="0.47"></circle><circle r="8.5" cx="308" cy="508" fill="hsl(360, 72%, 51%)" opacity="0.51"></circle><circle r="5.5" cx="581" cy="271" fill="hsl(360, 72%, 51%)" opacity="0.95"></circle><circle r="9.5" cx="461" cy="591" fill="hsl(360, 72%, 51%)" opacity="0.69"></circle><circle r="6" cx="137" cy="223" fill="hsl(360, 72%, 51%)" opacity="0.21"></circle><circle r="11.5" cx="24" cy="266" fill="hsl(360, 72%, 51%)" opacity="1.00"></circle><circle r="5.5" cx="92" cy="134" fill="hsl(360, 72%, 51%)" opacity="0.83"></circle><circle r="3" cx="184" cy="315" fill="hsl(360, 72%, 51%)" opacity="0.25"></circle><circle r="7.5" cx="626" cy="268" fill="hsl(360, 72%, 51%)" opacity="0.22"></circle><circle r="6" cx="267" cy="419" fill="hsl(360, 72%, 51%)" opacity="0.46"></circle><circle r="8.5" cx="624" cy="412" fill="hsl(360, 72%, 51%)" opacity="0.11"></circle><circle r="5.5" cx="602" cy="257" fill="hsl(360, 72%, 51%)" opacity="0.17"></circle><circle r="7" cx="581" cy="200" fill="hsl(360, 72%, 51%)" opacity="0.79"></circle><circle r="5.5" cx="119" cy="366" fill="hsl(360, 72%, 51%)" opacity="0.43"></circle><circle r="11.5" cx="404" cy="617" fill="hsl(360, 72%, 51%)" opacity="0.40"></circle><circle r="4.5" cx="623" cy="24" fill="hsl(360, 72%, 51%)" opacity="0.29"></circle><circle r="7" cx="44" cy="755" fill="hsl(360, 72%, 51%)" opacity="0.62"></circle><circle r="3.5" cx="180" cy="56" fill="hsl(360, 72%, 51%)" opacity="0.17"></circle><circle r="4.5" cx="94" cy="622" fill="hsl(360, 72%, 51%)" opacity="0.14"></circle><circle r="5" cx="630" cy="91" fill="hsl(360, 72%, 51%)" opacity="0.66"></circle></svg>