<svg xmlns="http://www.w3.org/2000/svg" version="1.1" xmlns:xlink="http://www.w3.org/1999/xlink" xmlns:svgjs="http://svgjs.dev/svgjs" viewBox="0 0 800 800"><circle r="10" cx="609" cy="105" fill="hsl(360, 93%, 54%)" opacity="0.91"></circle><circle r="10.5" cx="523" cy="321" fill="hsl(360, 93%, 54%)" opacity="0.95"></circle><circle r="6.5" cx="372" cy="612" fill="hsl(360, 93%, 54%)" opacity="0.43"></circle><circle r="12" cx="171" cy="545" fill="hsl(360, 93%, 54%)" opacity="0.48"></circle><circle r="10" cx="760" cy="418" fill="hsl(360, 93%, 54%)" opacity="1.00"></circle><circle r="9.5" cx="207" cy="723" fill="hsl(360, 93%, 54%)" opacity="0.66"></circle><circle r="12" cx="605" cy="473" fill="hsl(360, 93%, 54%)" opacity="0.12"></circle><circle r="5" cx="424" cy="89" fill="hsl(360, 93%, 54%)" opacity="0.37"></circle><circle r="5.5" cx="763" cy="10" fill="hsl(360, 93%, 54%)" opacity="0.22"></circle><circle r="9" cx="436" cy="641" fill="hsl(360, 93%, 54%)" opacity="0.12"></circle><circle r="14" cx="121" cy="671" fill="hsl(360, 93%, 54%)" opacity="0.17"></circle><circle r="6.5" cx="761" cy="758" fill="hsl(360, 93%, 54%)" opacity="0.99"></circle><circle r="14" cx="769" cy="103" fill="hsl(360, 93%, 54%)" opacity="0.31"></circle><circle r="6" cx="730" cy="789" fill="hsl(360, 93%, 54%)" opacity="0.36"></circle><circle r="10.5" cx="284" cy="148" fill="hsl(360, 93%, 54%)" opacity="0.65"></circle><circle r="12" cx="574" cy="636" fill="hsl(360, 93%, 54%)" opacity="0.76"></circle><circle r="12.5" cx="588" cy="324" fill="hsl(360, 93%, 54%)" opacity="0.33"></circle><circle r="10" cx="403" cy="212" fill="hsl(360, 93%, 54%)" opacity="0.55"></circle><circle r="20" cx="356" cy="413" fill="hsl(360, 93%, 54%)" opacity="0.85"></circle><circle r="10.5" cx="172" cy="326" fill="hsl(360, 93%, 54%)" opacity="0.32"></circle><circle r="12" cx="685" cy="377" fill="hsl(360, 93%, 54%)" opacity="0.60"></circle><circle r="11" cx="375" cy="182" fill="hsl(360, 93%, 54%)" opacity="0.40"></circle><circle r="5" cx="642" cy="792" fill="hsl(360, 93%, 54%)" opacity="0.43"></circle><circle r="12.5" cx="287" cy="280" fill="hsl(360, 93%, 54%)" opacity="0.80"></circle><circle r="15" cx="608" cy="662" fill="hsl(360, 93%, 54%)" opacity="0.64"></circle><circle r="12.5" cx="689" cy="522" fill="hsl(360, 93%, 54%)" opacity="0.87"></circle><circle r="5" cx="725" cy="734" fill="hsl(360, 93%, 54%)" opacity="0.22"></circle><circle r="12.5" cx="466" cy="524" fill="hsl(360, 93%, 54%)" opacity="0.87"></circle><circle r="11" cx="686" cy="417" fill="hsl(360, 93%, 54%)" opacity="0.20"></circle><circle r="11.5" cx="519" cy="652" fill="hsl(360, 93%, 54%)" opacity="0.63"></circle><circle r="7.5" cx="89" cy="784" fill="hsl(360, 93%, 54%)" opacity="0.35"></circle><circle r="9.5" cx="632" cy="75" fill="hsl(360, 93%, 54%)" opacity="0.85"></circle><circle r="9" cx="349" cy="202" fill="hsl(360, 93%, 54%)" opacity="0.34"></circle><circle r="9" cx="409" cy="277" fill="hsl(360, 93%, 54%)" opacity="0.25"></circle><circle r="7.5" cx="477" cy="132" fill="hsl(360, 93%, 54%)" opacity="0.88"></circle><circle r="19" cx="659" cy="273" fill="hsl(360, 93%, 54%)" opacity="0.19"></circle><circle r="8.5" cx="545" cy="161" fill="hsl(360, 93%, 54%)" opacity="0.52"></circle><circle r="10" cx="20" cy="243" fill="hsl(360, 93%, 54%)" opacity="0.12"></circle><circle r="13" cx="655" cy="698" fill="hsl(360, 93%, 54%)" opacity="0.92"></circle><circle r="11.5" cx="202" cy="333" fill="hsl(360, 93%, 54%)" opacity="0.88"></circle><circle r="7.5" cx="780" cy="659" fill="hsl(360, 93%, 54%)" opacity="0.66"></circle><circle r="9.5" cx="455" cy="253" fill="hsl(360, 93%, 54%)" opacity="0.86"></circle><circle r="7" cx="19" cy="333" fill="hsl(360, 93%, 54%)" opacity="0.70"></circle><circle r="10.5" cx="705" cy="445" fill="hsl(360, 93%, 54%)" opacity="0.67"></circle><circle r="12.5" cx="68" cy="438" fill="hsl(360, 93%, 54%)" opacity="0.55"></circle><circle r="10" cx="421" cy="557" fill="hsl(360, 93%, 54%)" opacity="0.61"></circle><circle r="9" cx="264" cy="188" fill="hsl(360, 93%, 54%)" opacity="0.27"></circle><circle r="16.5" cx="342" cy="470" fill="hsl(360, 93%, 54%)" opacity="0.43"></circle><circle r="7.5" cx="513" cy="780" fill="hsl(360, 93%, 54%)" opacity="0.95"></circle><circle r="9.5" cx="300" cy="117" fill="hsl(360, 93%, 54%)" opacity="0.29"></circle><circle r="7" cx="410" cy="242" fill="hsl(360, 93%, 54%)" opacity="0.58"></circle><circle r="11" cx="528" cy="281" fill="hsl(360, 93%, 54%)" opacity="0.41"></circle><circle r="5.5" cx="543" cy="700" fill="hsl(360, 93%, 54%)" opacity="0.37"></circle><circle r="13" cx="385" cy="338" fill="hsl(360, 93%, 54%)" opacity="0.43"></circle><circle r="10" cx="440" cy="297" fill="hsl(360, 93%, 54%)" opacity="0.48"></circle><circle r="9" cx="713" cy="652" fill="hsl(360, 93%, 54%)" opacity="0.73"></circle><circle r="5.5" cx="787" cy="491" fill="hsl(360, 93%, 54%)" opacity="0.15"></circle><circle r="12" cx="311" cy="258" fill="hsl(360, 93%, 54%)" opacity="0.87"></circle><circle r="10" cx="412" cy="367" fill="hsl(360, 93%, 54%)" opacity="0.23"></circle><circle r="14" cx="320" cy="167" fill="hsl(360, 93%, 54%)" opacity="0.58"></circle><circle r="11" cx="348" cy="240" fill="hsl(360, 93%, 54%)" opacity="0.92"></circle><circle r="8.5" cx="295" cy="748" fill="hsl(360, 93%, 54%)" opacity="0.96"></circle><circle r="7" cx="319" cy="752" fill="hsl(360, 93%, 54%)" opacity="0.18"></circle><circle r="10" cx="526" cy="374" fill="hsl(360, 93%, 54%)" opacity="0.28"></circle><circle r="9.5" cx="22" cy="737" fill="hsl(360, 93%, 54%)" opacity="0.98"></circle><circle r="10.5" cx="500" cy="439" fill="hsl(360, 93%, 54%)" opacity="0.15"></circle><circle r="7" cx="733" cy="764" fill="hsl(360, 93%, 54%)" opacity="0.45"></circle><circle r="8.5" cx="22" cy="463" fill="hsl(360, 93%, 54%)" opacity="0.24"></circle><circle r="7" cx="485" cy="784" fill="hsl(360, 93%, 54%)" opacity="0.77"></circle><circle r="9" cx="357" cy="110" fill="hsl(360, 93%, 54%)" opacity="0.73"></circle><circle r="7.5" cx="408" cy="618" fill="hsl(360, 93%, 54%)" opacity="0.57"></circle><circle r="14.5" cx="134" cy="218" fill="hsl(360, 93%, 54%)" opacity="0.13"></circle><circle r="6.5" cx="545" cy="727" fill="hsl(360, 93%, 54%)" opacity="0.46"></circle><circle r="9.5" cx="313" cy="719" fill="hsl(360, 93%, 54%)" opacity="0.12"></circle><circle r="6" cx="516" cy="473" fill="hsl(360, 93%, 54%)" opacity="0.82"></circle><circle r="10.5" cx="560" cy="247" fill="hsl(360, 93%, 54%)" opacity="0.29"></circle><circle r="3.5" cx="792" cy="465" fill="hsl(360, 93%, 54%)" opacity="0.19"></circle><circle r="8.5" cx="23" cy="87" fill="hsl(360, 93%, 54%)" opacity="0.51"></circle><circle r="11" cx="80" cy="376" fill="hsl(360, 93%, 54%)" opacity="0.41"></circle><circle r="21.5" cx="211" cy="403" fill="hsl(360, 93%, 54%)" opacity="0.58"></circle><circle r="11.5" cx="693" cy="778" fill="hsl(360, 93%, 54%)" opacity="0.35"></circle><circle r="9.5" cx="666" cy="61" fill="hsl(360, 93%, 54%)" opacity="0.21"></circle><circle r="16" cx="231" cy="221" fill="hsl(360, 93%, 54%)" opacity="0.41"></circle><circle r="8.5" cx="26" cy="146" fill="hsl(360, 93%, 54%)" opacity="0.40"></circle><circle r="10" cx="513" cy="698" fill="hsl(360, 93%, 54%)" opacity="0.35"></circle><circle r="12" cx="661" cy="330" fill="hsl(360, 93%, 54%)" opacity="0.98"></circle><circle r="13" cx="767" cy="219" fill="hsl(360, 93%, 54%)" opacity="0.65"></circle><circle r="8" cx="72" cy="251" fill="hsl(360, 93%, 54%)" opacity="0.14"></circle><circle r="7" cx="462" cy="22" fill="hsl(360, 93%, 54%)" opacity="0.21"></circle><circle r="13" cx="260" cy="681" fill="hsl(360, 93%, 54%)" opacity="0.34"></circle><circle r="14" cx="247" cy="605" fill="hsl(360, 93%, 54%)" opacity="0.20"></circle><circle r="12" cx="722" cy="171" fill="hsl(360, 93%, 54%)" opacity="0.86"></circle><circle r="9.5" cx="477" cy="475" fill="hsl(360, 93%, 54%)" opacity="0.90"></circle><circle r="16.5" cx="355" cy="536" fill="hsl(360, 93%, 54%)" opacity="0.75"></circle><circle r="12" cx="145" cy="625" fill="hsl(360, 93%, 54%)" opacity="0.31"></circle><circle r="11" cx="133" cy="439" fill="hsl(360, 93%, 54%)" opacity="0.47"></circle><circle r="5.5" cx="387" cy="624" fill="hsl(360, 93%, 54%)" opacity="0.58"></circle><circle r="14" cx="236" cy="646" fill="hsl(360, 93%, 54%)" opacity="0.64"></circle><circle r="15" cx="205" cy="520" fill="hsl(360, 93%, 54%)" opacity="0.50"></circle><circle r="6" cx="15" cy="576" fill="hsl(360, 93%, 54%)" opacity="0.61"></circle><circle r="6.5" cx="60" cy="108" fill="hsl(360, 93%, 54%)" opacity="0.11"></circle><circle r="18" cx="281" cy="330" fill="hsl(360, 93%, 54%)" opacity="0.55"></circle><circle r="11.5" cx="212" cy="154" fill="hsl(360, 93%, 54%)" opacity="0.78"></circle><circle r="9.5" cx="426" cy="151" fill="hsl(360, 93%, 54%)" opacity="0.80"></circle><circle r="14" cx="228" cy="104" fill="hsl(360, 93%, 54%)" opacity="0.94"></circle><circle r="11" cx="315" cy="212" fill="hsl(360, 93%, 54%)" opacity="0.45"></circle><circle r="9" cx="381" cy="87" fill="hsl(360, 93%, 54%)" opacity="0.88"></circle><circle r="11" cx="711" cy="300" fill="hsl(360, 93%, 54%)" opacity="0.11"></circle><circle r="7" cx="537" cy="491" fill="hsl(360, 93%, 54%)" opacity="0.19"></circle><circle r="13.5" cx="244" cy="275" fill="hsl(360, 93%, 54%)" opacity="0.40"></circle><circle r="11.5" cx="712" cy="76" fill="hsl(360, 93%, 54%)" opacity="0.39"></circle><circle r="5.5" cx="777" cy="688" fill="hsl(360, 93%, 54%)" opacity="0.47"></circle><circle r="7" cx="539" cy="769" fill="hsl(360, 93%, 54%)" opacity="0.18"></circle><circle r="11" cx="648" cy="417" fill="hsl(360, 93%, 54%)" opacity="0.43"></circle><circle r="6" cx="92" cy="12" fill="hsl(360, 93%, 54%)" opacity="0.75"></circle><circle r="9.5" cx="542" cy="527" fill="hsl(360, 93%, 54%)" opacity="0.34"></circle><circle r="4" cx="789" cy="319" fill="hsl(360, 93%, 54%)" opacity="0.33"></circle><circle r="5.5" cx="744" cy="732" fill="hsl(360, 93%, 54%)" opacity="0.69"></circle><circle r="5" cx="505" cy="20" fill="hsl(360, 93%, 54%)" opacity="0.11"></circle><circle r="7.5" cx="412" cy="117" fill="hsl(360, 93%, 54%)" opacity="0.42"></circle><circle r="13" cx="282" cy="777" fill="hsl(360, 93%, 54%)" opacity="0.32"></circle><circle r="17.5" cx="655" cy="479" fill="hsl(360, 93%, 54%)" opacity="0.57"></circle><circle r="9" cx="183" cy="741" fill="hsl(360, 93%, 54%)" opacity="0.47"></circle><circle r="16.5" cx="572" cy="378" fill="hsl(360, 93%, 54%)" opacity="0.97"></circle><circle r="7.5" cx="784" cy="354" fill="hsl(360, 93%, 54%)" opacity="0.33"></circle><circle r="9" cx="122" cy="104" fill="hsl(360, 93%, 54%)" opacity="0.90"></circle><circle r="9.5" cx="756" cy="57" fill="hsl(360, 93%, 54%)" opacity="0.25"></circle><circle r="9" cx="515" cy="90" fill="hsl(360, 93%, 54%)" opacity="0.92"></circle><circle r="13" cx="359" cy="30" fill="hsl(360, 93%, 54%)" opacity="0.25"></circle><circle r="9.5" cx="480" cy="674" fill="hsl(360, 93%, 54%)" opacity="0.76"></circle><circle r="8.5" cx="391" cy="148" fill="hsl(360, 93%, 54%)" opacity="0.84"></circle><circle r="19" cx="332" cy="345" fill="hsl(360, 93%, 54%)" opacity="0.95"></circle><circle r="10.5" cx="23" cy="32" fill="hsl(360, 93%, 54%)" opacity="0.47"></circle><circle r="11.5" cx="619" cy="707" fill="hsl(360, 93%, 54%)" opacity="0.63"></circle><circle r="12" cx="608" cy="755" fill="hsl(360, 93%, 54%)" opacity="0.29"></circle><circle r="6" cx="411" cy="63" fill="hsl(360, 93%, 54%)" opacity="0.32"></circle><circle r="15.5" cx="682" cy="220" fill="hsl(360, 93%, 54%)" opacity="0.69"></circle><circle r="14.5" cx="336" cy="598" fill="hsl(360, 93%, 54%)" opacity="0.27"></circle><circle r="7" cx="92" cy="129" fill="hsl(360, 93%, 54%)" opacity="0.57"></circle><circle r="9" cx="774" cy="265" fill="hsl(360, 93%, 54%)" opacity="0.39"></circle><circle r="15" cx="661" cy="647" fill="hsl(360, 93%, 54%)" opacity="0.80"></circle><circle r="7.5" cx="697" cy="346" fill="hsl(360, 93%, 54%)" opacity="0.67"></circle><circle r="8" cx="191" cy="771" fill="hsl(360, 93%, 54%)" opacity="0.63"></circle><circle r="6" cx="45" cy="519" fill="hsl(360, 93%, 54%)" opacity="0.11"></circle><circle r="9" cx="437" cy="194" fill="hsl(360, 93%, 54%)" opacity="0.71"></circle><circle r="10" cx="106" cy="167" fill="hsl(360, 93%, 54%)" opacity="0.13"></circle><circle r="8.5" cx="461" cy="373" fill="hsl(360, 93%, 54%)" opacity="0.69"></circle><circle r="12" cx="407" cy="515" fill="hsl(360, 93%, 54%)" opacity="0.48"></circle><circle r="8" cx="722" cy="355" fill="hsl(360, 93%, 54%)" opacity="0.12"></circle><circle r="8" cx="747" cy="607" fill="hsl(360, 93%, 54%)" opacity="0.23"></circle><circle r="9" cx="518" cy="240" fill="hsl(360, 93%, 54%)" opacity="0.13"></circle><circle r="9.5" cx="55" cy="567" fill="hsl(360, 93%, 54%)" opacity="0.54"></circle><circle r="12.5" cx="668" cy="742" fill="hsl(360, 93%, 54%)" opacity="0.99"></circle><circle r="8.5" cx="782" cy="620" fill="hsl(360, 93%, 54%)" opacity="0.61"></circle><circle r="10" cx="127" cy="780" fill="hsl(360, 93%, 54%)" opacity="0.76"></circle><circle r="8.5" cx="506" cy="513" fill="hsl(360, 93%, 54%)" opacity="0.56"></circle><circle r="13" cx="270" cy="727" fill="hsl(360, 93%, 54%)" opacity="0.53"></circle><circle r="7.5" cx="453" cy="111" fill="hsl(360, 93%, 54%)" opacity="0.31"></circle><circle r="9.5" cx="705" cy="117" fill="hsl(360, 93%, 54%)" opacity="0.66"></circle><circle r="13" cx="573" cy="594" fill="hsl(360, 93%, 54%)" opacity="0.23"></circle><circle r="9.5" cx="742" cy="514" fill="hsl(360, 93%, 54%)" opacity="0.88"></circle><circle r="10" cx="253" cy="133" fill="hsl(360, 93%, 54%)" opacity="0.72"></circle><circle r="11.5" cx="574" cy="287" fill="hsl(360, 93%, 54%)" opacity="0.25"></circle><circle r="9" cx="123" cy="21" fill="hsl(360, 93%, 54%)" opacity="0.13"></circle><circle r="13" cx="249" cy="766" fill="hsl(360, 93%, 54%)" opacity="0.13"></circle><circle r="14.5" cx="609" cy="540" fill="hsl(360, 93%, 54%)" opacity="0.13"></circle><circle r="10.5" cx="690" cy="697" fill="hsl(360, 93%, 54%)" opacity="0.50"></circle><circle r="6.5" cx="741" cy="20" fill="hsl(360, 93%, 54%)" opacity="0.51"></circle><circle r="8.5" cx="79" cy="69" fill="hsl(360, 93%, 54%)" opacity="0.52"></circle><circle r="7" cx="769" cy="453" fill="hsl(360, 93%, 54%)" opacity="0.63"></circle><circle r="10" cx="355" cy="145" fill="hsl(360, 93%, 54%)" opacity="0.33"></circle><circle r="8.5" cx="516" cy="136" fill="hsl(360, 93%, 54%)" opacity="0.31"></circle><circle r="12.5" cx="128" cy="318" fill="hsl(360, 93%, 54%)" opacity="0.76"></circle><circle r="4" cx="791" cy="424" fill="hsl(360, 93%, 54%)" opacity="0.14"></circle><circle r="9" cx="326" cy="90" fill="hsl(360, 93%, 54%)" opacity="0.76"></circle><circle r="6" cx="787" cy="580" fill="hsl(360, 93%, 54%)" opacity="0.83"></circle><circle r="8" cx="779" cy="782" fill="hsl(360, 93%, 54%)" opacity="0.94"></circle><circle r="13" cx="354" cy="643" fill="hsl(360, 93%, 54%)" opacity="0.39"></circle><circle r="9" cx="748" cy="292" fill="hsl(360, 93%, 54%)" opacity="0.42"></circle><circle r="16.5" cx="179" cy="186" fill="hsl(360, 93%, 54%)" opacity="0.45"></circle><circle r="7.5" cx="565" cy="90" fill="hsl(360, 93%, 54%)" opacity="0.24"></circle><circle r="5.5" cx="766" cy="726" fill="hsl(360, 93%, 54%)" opacity="0.64"></circle><circle r="15" cx="229" cy="562" fill="hsl(360, 93%, 54%)" opacity="0.26"></circle><circle r="6" cx="484" cy="184" fill="hsl(360, 93%, 54%)" opacity="0.20"></circle><circle r="5.5" cx="14" cy="524" fill="hsl(360, 93%, 54%)" opacity="0.52"></circle><circle r="9" cx="231" cy="181" fill="hsl(360, 93%, 54%)" opacity="0.82"></circle><circle r="19" cx="195" cy="469" fill="hsl(360, 93%, 54%)" opacity="0.54"></circle><circle r="5.5" cx="488" cy="157" fill="hsl(360, 93%, 54%)" opacity="0.28"></circle><circle r="9" cx="84" cy="214" fill="hsl(360, 93%, 54%)" opacity="0.90"></circle><circle r="6.5" cx="459" cy="780" fill="hsl(360, 93%, 54%)" opacity="0.87"></circle><circle r="8" cx="615" cy="20" fill="hsl(360, 93%, 54%)" opacity="0.49"></circle><circle r="5.5" cx="433" cy="42" fill="hsl(360, 93%, 54%)" opacity="0.38"></circle><circle r="7.5" cx="723" cy="683" fill="hsl(360, 93%, 54%)" opacity="0.49"></circle><circle r="16.5" cx="693" cy="585" fill="hsl(360, 93%, 54%)" opacity="0.14"></circle><circle r="8.5" cx="341" cy="760" fill="hsl(360, 93%, 54%)" opacity="0.75"></circle><circle r="8.5" cx="25" cy="678" fill="hsl(360, 93%, 54%)" opacity="0.16"></circle><circle r="13" cx="626" cy="338" fill="hsl(360, 93%, 54%)" opacity="0.59"></circle><circle r="9" cx="590" cy="719" fill="hsl(360, 93%, 54%)" opacity="0.69"></circle><circle r="7.5" cx="511" cy="178" fill="hsl(360, 93%, 54%)" opacity="0.74"></circle><circle r="11" cx="282" cy="511" fill="hsl(360, 93%, 54%)" opacity="0.47"></circle><circle r="8.5" cx="550" cy="121" fill="hsl(360, 93%, 54%)" opacity="0.54"></circle><circle r="13" cx="248" cy="510" fill="hsl(360, 93%, 54%)" opacity="0.57"></circle><circle r="6.5" cx="783" cy="546" fill="hsl(360, 93%, 54%)" opacity="0.46"></circle><circle r="9.5" cx="139" cy="746" fill="hsl(360, 93%, 54%)" opacity="0.95"></circle><circle r="7" cx="407" cy="18" fill="hsl(360, 93%, 54%)" opacity="0.93"></circle><circle r="9.5" cx="150" cy="712" fill="hsl(360, 93%, 54%)" opacity="0.46"></circle><circle r="8.5" cx="396" cy="653" fill="hsl(360, 93%, 54%)" opacity="0.31"></circle><circle r="8" cx="111" cy="725" fill="hsl(360, 93%, 54%)" opacity="0.58"></circle><circle r="14.5" cx="651" cy="541" fill="hsl(360, 93%, 54%)" opacity="0.24"></circle><circle r="7.5" cx="35" cy="286" fill="hsl(360, 93%, 54%)" opacity="0.97"></circle><circle r="7" cx="548" cy="189" fill="hsl(360, 93%, 54%)" opacity="0.64"></circle><circle r="11.5" cx="621" cy="205" fill="hsl(360, 93%, 54%)" opacity="0.37"></circle><circle r="8" cx="730" cy="628" fill="hsl(360, 93%, 54%)" opacity="0.72"></circle><circle r="13.5" cx="342" cy="701" fill="hsl(360, 93%, 54%)" opacity="0.24"></circle><circle r="6.5" cx="434" cy="594" fill="hsl(360, 93%, 54%)" opacity="0.22"></circle><circle r="10.5" cx="25" cy="388" fill="hsl(360, 93%, 54%)" opacity="0.58"></circle><circle r="8" cx="376" cy="764" fill="hsl(360, 93%, 54%)" opacity="0.59"></circle><circle r="5" cx="13" cy="627" fill="hsl(360, 93%, 54%)" opacity="0.24"></circle><circle r="13.5" cx="111" cy="563" fill="hsl(360, 93%, 54%)" opacity="0.20"></circle><circle r="12.5" cx="280" cy="215" fill="hsl(360, 93%, 54%)" opacity="0.37"></circle><circle r="10" cx="134" cy="522" fill="hsl(360, 93%, 54%)" opacity="0.22"></circle><circle r="7.5" cx="551" cy="216" fill="hsl(360, 93%, 54%)" opacity="0.66"></circle><circle r="7.5" cx="609" cy="787" fill="hsl(360, 93%, 54%)" opacity="0.77"></circle><circle r="11" cx="372" cy="577" fill="hsl(360, 93%, 54%)" opacity="0.60"></circle><circle r="7.5" cx="257" cy="161" fill="hsl(360, 93%, 54%)" opacity="0.63"></circle><circle r="13" cx="309" cy="52" fill="hsl(360, 93%, 54%)" opacity="0.53"></circle><circle r="11.5" cx="645" cy="176" fill="hsl(360, 93%, 54%)" opacity="0.65"></circle><circle r="12" cx="223" cy="694" fill="hsl(360, 93%, 54%)" opacity="0.52"></circle><circle r="11.5" cx="294" cy="692" fill="hsl(360, 93%, 54%)" opacity="0.42"></circle><circle r="14" cx="178" cy="33" fill="hsl(360, 93%, 54%)" opacity="0.40"></circle><circle r="7" cx="778" cy="517" fill="hsl(360, 93%, 54%)" opacity="0.90"></circle><circle r="13" cx="560" cy="427" fill="hsl(360, 93%, 54%)" opacity="0.11"></circle><circle r="13" cx="504" cy="608" fill="hsl(360, 93%, 54%)" opacity="0.76"></circle><circle r="8" cx="704" cy="739" fill="hsl(360, 93%, 54%)" opacity="0.12"></circle><circle r="13.5" cx="233" cy="351" fill="hsl(360, 93%, 54%)" opacity="0.88"></circle><circle r="7" cx="738" cy="560" fill="hsl(360, 93%, 54%)" opacity="0.90"></circle><circle r="5" cx="787" cy="295" fill="hsl(360, 93%, 54%)" opacity="0.27"></circle><circle r="11" cx="534" cy="563" fill="hsl(360, 93%, 54%)" opacity="0.33"></circle><circle r="6" cx="756" cy="699" fill="hsl(360, 93%, 54%)" opacity="0.55"></circle><circle r="7.5" cx="402" cy="590" fill="hsl(360, 93%, 54%)" opacity="0.56"></circle><circle r="9.5" cx="163" cy="781" fill="hsl(360, 93%, 54%)" opacity="0.68"></circle><circle r="9.5" cx="102" cy="485" fill="hsl(360, 93%, 54%)" opacity="0.81"></circle><circle r="8.5" cx="475" cy="70" fill="hsl(360, 93%, 54%)" opacity="0.47"></circle><circle r="11" cx="570" cy="748" fill="hsl(360, 93%, 54%)" opacity="0.75"></circle><circle r="8" cx="755" cy="476" fill="hsl(360, 93%, 54%)" opacity="0.95"></circle><circle r="11.5" cx="680" cy="174" fill="hsl(360, 93%, 54%)" opacity="0.91"></circle><circle r="7" cx="692" cy="318" fill="hsl(360, 93%, 54%)" opacity="0.40"></circle><circle r="19" cx="291" cy="586" fill="hsl(360, 93%, 54%)" opacity="0.30"></circle><circle r="10.5" cx="195" cy="594" fill="hsl(360, 93%, 54%)" opacity="0.62"></circle><circle r="8.5" cx="518" cy="741" fill="hsl(360, 93%, 54%)" opacity="0.98"></circle><circle r="13" cx="315" cy="518" fill="hsl(360, 93%, 54%)" opacity="0.20"></circle><circle r="8" cx="319" cy="788" fill="hsl(360, 93%, 54%)" opacity="0.57"></circle><circle r="10" cx="713" cy="29" fill="hsl(360, 93%, 54%)" opacity="0.14"></circle><circle r="7.5" cx="481" cy="312" fill="hsl(360, 93%, 54%)" opacity="0.25"></circle><circle r="10" cx="477" cy="224" fill="hsl(360, 93%, 54%)" opacity="0.69"></circle><circle r="11" cx="175" cy="689" fill="hsl(360, 93%, 54%)" opacity="0.18"></circle><circle r="6.5" cx="784" cy="18" fill="hsl(360, 93%, 54%)" opacity="0.65"></circle><circle r="9.5" cx="741" cy="391" fill="hsl(360, 93%, 54%)" opacity="0.45"></circle><circle r="17" cx="309" cy="651" fill="hsl(360, 93%, 54%)" opacity="0.97"></circle><circle r="12" cx="388" cy="689" fill="hsl(360, 93%, 54%)" opacity="0.15"></circle><circle r="14.5" cx="169" cy="115" fill="hsl(360, 93%, 54%)" opacity="0.42"></circle><circle r="8" cx="758" cy="577" fill="hsl(360, 93%, 54%)" opacity="0.98"></circle><circle r="9.5" cx="553" cy="466" fill="hsl(360, 93%, 54%)" opacity="0.95"></circle><circle r="10" cx="99" cy="291" fill="hsl(360, 93%, 54%)" opacity="0.84"></circle><circle r="10" cx="66" cy="694" fill="hsl(360, 93%, 54%)" opacity="0.28"></circle><circle r="8.5" cx="66" cy="26" fill="hsl(360, 93%, 54%)" opacity="0.65"></circle><circle r="7.5" cx="66" cy="759" fill="hsl(360, 93%, 54%)" opacity="0.31"></circle><circle r="7" cx="676" cy="96" fill="hsl(360, 93%, 54%)" opacity="0.41"></circle><circle r="11.5" cx="617" cy="435" fill="hsl(360, 93%, 54%)" opacity="0.80"></circle><circle r="12.5" cx="274" cy="416" fill="hsl(360, 93%, 54%)" opacity="0.19"></circle><circle r="12.5" cx="629" cy="384" fill="hsl(360, 93%, 54%)" opacity="0.70"></circle><circle r="12.5" cx="474" cy="734" fill="hsl(360, 93%, 54%)" opacity="0.50"></circle><circle r="9" cx="442" cy="335" fill="hsl(360, 93%, 54%)" opacity="0.17"></circle><circle r="12.5" cx="269" cy="377" fill="hsl(360, 93%, 54%)" opacity="0.95"></circle><circle r="10.5" cx="427" cy="430" fill="hsl(360, 93%, 54%)" opacity="0.41"></circle><circle r="8.5" cx="204" cy="622" fill="hsl(360, 93%, 54%)" opacity="0.77"></circle><circle r="7.5" cx="434" cy="772" fill="hsl(360, 93%, 54%)" opacity="0.17"></circle><circle r="7.5" cx="76" cy="513" fill="hsl(360, 93%, 54%)" opacity="0.82"></circle><circle r="8.5" cx="278" cy="16" fill="hsl(360, 93%, 54%)" opacity="0.12"></circle><circle r="11" cx="219" cy="778" fill="hsl(360, 93%, 54%)" opacity="0.26"></circle><circle r="14" cx="717" cy="254" fill="hsl(360, 93%, 54%)" opacity="0.61"></circle><circle r="6.5" cx="372" cy="789" fill="hsl(360, 93%, 54%)" opacity="0.30"></circle><circle r="5" cx="789" cy="50" fill="hsl(360, 93%, 54%)" opacity="0.59"></circle><circle r="15" cx="199" cy="250" fill="hsl(360, 93%, 54%)" opacity="0.20"></circle><circle r="6" cx="461" cy="178" fill="hsl(360, 93%, 54%)" opacity="0.31"></circle><circle r="10" cx="223" cy="303" fill="hsl(360, 93%, 54%)" opacity="0.36"></circle><circle r="7.5" cx="511" cy="208" fill="hsl(360, 93%, 54%)" opacity="0.71"></circle><circle r="11.5" cx="374" cy="729" fill="hsl(360, 93%, 54%)" opacity="0.71"></circle><circle r="13" cx="156" cy="402" fill="hsl(360, 93%, 54%)" opacity="0.69"></circle><circle r="11.5" cx="710" cy="482" fill="hsl(360, 93%, 54%)" opacity="0.55"></circle><circle r="5" cx="534" cy="37" fill="hsl(360, 93%, 54%)" opacity="0.64"></circle><circle r="9" cx="565" cy="785" fill="hsl(360, 93%, 54%)" opacity="0.13"></circle><circle r="17.5" cx="641" cy="601" fill="hsl(360, 93%, 54%)" opacity="0.49"></circle><circle r="7" cx="44" cy="620" fill="hsl(360, 93%, 54%)" opacity="0.87"></circle><circle r="8" cx="752" cy="354" fill="hsl(360, 93%, 54%)" opacity="0.11"></circle><circle r="12" cx="412" cy="471" fill="hsl(360, 93%, 54%)" opacity="0.74"></circle><circle r="8.5" cx="467" cy="592" fill="hsl(360, 93%, 54%)" opacity="0.78"></circle><circle r="6" cx="469" cy="336" fill="hsl(360, 93%, 54%)" opacity="0.92"></circle><circle r="13" cx="580" cy="506" fill="hsl(360, 93%, 54%)" opacity="0.52"></circle><circle r="9.5" cx="130" cy="62" fill="hsl(360, 93%, 54%)" opacity="0.44"></circle><circle r="7" cx="724" cy="710" fill="hsl(360, 93%, 54%)" opacity="0.19"></circle><circle r="14.5" cx="770" cy="162" fill="hsl(360, 93%, 54%)" opacity="0.23"></circle><circle r="10" cx="651" cy="770" fill="hsl(360, 93%, 54%)" opacity="0.36"></circle><circle r="16" cx="614" cy="254" fill="hsl(360, 93%, 54%)" opacity="0.12"></circle><circle r="14.5" cx="364" cy="280" fill="hsl(360, 93%, 54%)" opacity="0.71"></circle><circle r="14.5" cx="600" cy="147" fill="hsl(360, 93%, 54%)" opacity="0.89"></circle><circle r="9.5" cx="414" cy="745" fill="hsl(360, 93%, 54%)" opacity="0.78"></circle><circle r="11" cx="443" cy="685" fill="hsl(360, 93%, 54%)" opacity="0.58"></circle><circle r="10" cx="667" cy="22" fill="hsl(360, 93%, 54%)" opacity="0.58"></circle><circle r="14" cx="282" cy="453" fill="hsl(360, 93%, 54%)" opacity="0.62"></circle><circle r="11.5" cx="565" cy="688" fill="hsl(360, 93%, 54%)" opacity="0.72"></circle><circle r="9" cx="490" cy="273" fill="hsl(360, 93%, 54%)" opacity="0.37"></circle><circle r="10" cx="671" cy="136" fill="hsl(360, 93%, 54%)" opacity="0.84"></circle><circle r="8.5" cx="716" cy="542" fill="hsl(360, 93%, 54%)" opacity="0.34"></circle><circle r="7" cx="28" cy="782" fill="hsl(360, 93%, 54%)" opacity="0.94"></circle><circle r="10.5" cx="584" cy="198" fill="hsl(360, 93%, 54%)" opacity="0.39"></circle><circle r="11.5" cx="156" cy="585" fill="hsl(360, 93%, 54%)" opacity="0.34"></circle><circle r="6.5" cx="82" cy="730" fill="hsl(360, 93%, 54%)" opacity="0.17"></circle><circle r="5" cx="789" cy="735" fill="hsl(360, 93%, 54%)" opacity="0.34"></circle><circle r="13" cx="87" cy="622" fill="hsl(360, 93%, 54%)" opacity="0.98"></circle><circle r="9" cx="37" cy="193" fill="hsl(360, 93%, 54%)" opacity="0.91"></circle><circle r="8" cx="591" cy="59" fill="hsl(360, 93%, 54%)" opacity="0.78"></circle><circle r="11" cx="144" cy="484" fill="hsl(360, 93%, 54%)" opacity="0.31"></circle><circle r="9" cx="58" cy="322" fill="hsl(360, 93%, 54%)" opacity="0.59"></circle><circle r="10.5" cx="489" cy="400" fill="hsl(360, 93%, 54%)" opacity="0.99"></circle><circle r="6.5" cx="752" cy="323" fill="hsl(360, 93%, 54%)" opacity="0.64"></circle><circle r="14.5" cx="156" cy="267" fill="hsl(360, 93%, 54%)" opacity="0.37"></circle><circle r="8" cx="494" cy="351" fill="hsl(360, 93%, 54%)" opacity="0.87"></circle><circle r="15" cx="237" cy="48" fill="hsl(360, 93%, 54%)" opacity="0.83"></circle><circle r="7" cx="438" cy="398" fill="hsl(360, 93%, 54%)" opacity="0.28"></circle><circle r="6.5" cx="566" cy="34" fill="hsl(360, 93%, 54%)" opacity="0.20"></circle><circle r="12" cx="184" cy="654" fill="hsl(360, 93%, 54%)" opacity="0.44"></circle><circle r="11.5" cx="132" cy="365" fill="hsl(360, 93%, 54%)" opacity="0.42"></circle></svg>